<?xml version="1.0" encoding="UTF-8" standalone="no"?>
<!DOCTYPE svg PUBLIC "-//W3C//Dtd SVG 1.1//EN" "http://www.w3.org/Graphics/SVG/1.1/Dtd/svg11.dtd">
<svg xmlns="http://www.w3.org/2000/svg" width="9.193283mm" height="9.193283mm" viewBox="-0.463612216302735 -3.32618468823088 9.193283 9.193283" version="1.1" preserveAspectratio="xMidYMid">
  <!--SVG version of Rhinoceros 5.0 file untitled.3dm-->
  <!-- Millimeters in Rhinoceros file-->
  <!-- Millimeters in SVG file-->
  <!--Export Rhino to SVG, version 0.3, 21 of November 2016, Laurent Delrieu email:l[dot]delrieu[at]neuf.fr-->
  <g id="Default" stroke-width="0.17" stroke="rgb(0,0,0)" stroke-opacity="1" stroke-linecap="round" stroke-linejoin="round" fill="none">
    <path d="M 3.777314 2.87869 C4.072536,3.341597 4.367757,3.804505 4.662978,4.267412 C4.78155,3.731334 4.900122,3.195256 5.018694,2.659178 C5.554771,2.77775 6.090849,2.896322 6.626927,3.014894 C6.331706,2.551986 6.036484,2.089079 5.741263,1.626172 C6.20417,1.330951 6.667077,1.035729 7.129984,0.740508 C6.593906,0.621936 6.057829,0.503365 5.521751,0.384793 C5.640323,-0.151285 5.758894,-0.687363 5.877466,-1.22344 C5.414559,-0.928219 4.951652,-0.632998 4.488745,-0.337776 C4.193523,-0.800683 3.898302,-1.26359 3.603081,-1.726498 C3.484509,-1.19042 3.365937,-0.654342 3.247365,-0.118264 C2.711288,-0.236836 2.17521,-0.355408 1.639132,-0.473979 C1.934353,-0.011072 2.229575,0.451835 2.524796,0.914742 C2.061889,1.209963 1.598982,1.505185 1.136075,1.800406 C1.672153,1.918978 2.20823,2.037549 2.744308,2.156121 C2.625737,2.692199 2.507165,3.228277 2.388593,3.764354 C2.8515,3.469133 3.314407,3.173912 3.777314,2.87869 z" fill="none" />
    <path d="M 3.846223 -0.351483 C4.160917,-0.801379 4.475611,-1.251275 4.790305,-1.701171 C4.885908,-1.160524 4.98151,-0.619877 5.077112,-0.07923 C5.617758,-0.174833 6.158405,-0.270435 6.699052,-0.366037 C6.384358,0.083859 6.069664,0.533755 5.75497,0.983651 C6.204866,1.298345 6.654761,1.613039 7.104657,1.927733 C6.564011,2.023335 6.023364,2.118937 5.482717,2.214539 C5.578319,2.755186 5.673921,3.295833 5.769523,3.836479 C5.319628,3.521785 4.869732,3.207091 4.419836,2.892397 C4.105142,3.342293 3.790448,3.792189 3.475754,4.242085 C3.380152,3.701438 3.284549,3.160791 3.188947,2.620145 C2.648301,2.715747 2.107654,2.811349 1.567007,2.906951 C1.881701,2.457055 2.196395,2.007159 2.511089,1.557263 C2.061194,1.242569 1.611298,0.927875 1.161402,0.613181 C1.702049,0.517579 2.242695,0.421977 2.783342,0.326375 C2.68774,-0.214272 2.592138,-0.754919 2.496536,-1.295565 C2.946432,-0.980871 3.396327,-0.666177 3.846223,-0.351483 z" fill="none" />
    <path d="M 7.129984 0.740508 C5.54952,1.748457 3.969057,2.756406 2.388593,3.764354 C3.51557,3.788396 4.642547,3.812438 5.769523,3.836479 C6.22301,2.804489 6.676497,1.772499 7.129984,0.740508 z" fill="none" />
    <path d="M 7.129984 0.740508 C6.676497,1.772499 6.22301,2.804489 5.769523,3.836479 C5.443117,1.990596 5.116711,0.144713 4.790305,-1.701171 C5.570198,-0.887278 6.350091,-0.073385 7.129984,0.740508 z" fill="none" />
    <path d="M 2.388593 3.764354 C2.793422,1.93407 3.198251,0.103786 3.603081,-1.726498 C2.789188,-0.946605 1.975295,-0.166712 1.161402,0.613181 C1.570466,1.663572 1.979529,2.713963 2.388593,3.764354 z" fill="none" />
    <path d="M 2.388593 3.764354 C1.979529,2.713963 1.570466,1.663572 1.161402,0.613181 C2.697442,1.687614 4.233483,2.762047 5.769523,3.836479 C4.642547,3.812438 3.51557,3.788396 2.388593,3.764354 z" fill="none" />
    <path d="M 5.877466 -1.22344 C5.472637,0.606844 5.067808,2.437128 4.662978,4.267412 C5.476871,3.487519 6.290764,2.707626 7.104657,1.927733 C6.695593,0.877342 6.28653,-0.173049 5.877466,-1.22344 z" fill="none" />
    <path d="M 5.877466 -1.22344 C6.28653,-0.173049 6.695593,0.877342 7.104657,1.927733 C5.568617,0.8533 4.032576,-0.221133 2.496536,-1.295565 C3.623512,-1.271524 4.750489,-1.247482 5.877466,-1.22344 z" fill="none" />
    <path d="M 1.136075 1.800406 C2.716539,0.792457 4.297002,-0.215492 5.877466,-1.22344 C4.750489,-1.247482 3.623512,-1.271524 2.496536,-1.295565 C2.043049,-0.263575 1.589562,0.768416 1.136075,1.800406 z" fill="none" />
    <path d="M 1.136075 1.800406 C1.589562,0.768416 2.043049,-0.263575 2.496536,-1.295565 C2.822942,0.550318 3.149348,2.396201 3.475754,4.242085 C2.695861,3.428192 1.915968,2.614299 1.136075,1.800406 z" fill="none" />
    <path d="M 1.639132 -0.473979 C3.469416,-0.06915 5.2997,0.335679 7.129984,0.740508 C6.350091,-0.073385 5.570198,-0.887278 4.790305,-1.701171 C3.739914,-1.292107 2.689523,-0.883043 1.639132,-0.473979 z" fill="none" />
    <path d="M 1.639132 -0.473979 C2.689523,-0.883043 3.739914,-1.292107 4.790305,-1.701171 C3.715873,-0.16513 2.64144,1.37091 1.567007,2.906951 C1.591049,1.779974 1.61509,0.652997 1.639132,-0.473979 z" fill="none" />
    <path d="M 3.603081 -1.726498 C4.611029,-0.146034 5.618978,1.43443 6.626927,3.014894 C6.650969,1.887917 6.67501,0.76094 6.699052,-0.366037 C5.667061,-0.819524 4.635071,-1.273011 3.603081,-1.726498 z" fill="none" />
    <path d="M 3.603081 -1.726498 C4.635071,-1.273011 5.667061,-0.819524 6.699052,-0.366037 C4.853169,-0.039631 3.007285,0.286775 1.161402,0.613181 C1.975295,-0.166712 2.789188,-0.946605 3.603081,-1.726498 z" fill="none" />
    <path d="M 4.662978 4.267412 C3.65503,2.686948 2.647081,1.106484 1.639132,-0.473979 C1.61509,0.652997 1.591049,1.779974 1.567007,2.906951 C2.598998,3.360438 3.630988,3.813925 4.662978,4.267412 z" fill="none" />
    <path d="M 4.662978 4.267412 C3.630988,3.813925 2.598998,3.360438 1.567007,2.906951 C3.412891,2.580545 5.258774,2.254139 7.104657,1.927733 C6.290764,2.707626 5.476871,3.487519 4.662978,4.267412 z" fill="none" />
    <path d="M 6.626927 3.014894 C4.796643,2.610064 2.966359,2.205235 1.136075,1.800406 C1.915968,2.614299 2.695861,3.428192 3.475754,4.242085 C4.526145,3.833021 5.576536,3.423957 6.626927,3.014894 z" fill="none" />
    <path d="M 6.626927 3.014894 C5.576536,3.423957 4.526145,3.833021 3.475754,4.242085 C4.550186,2.706044 5.624619,1.170004 6.699052,-0.366037 C6.67501,0.76094 6.650969,1.887917 6.626927,3.014894 z" fill="none" />
  </g>
</svg>