<?xml version="1.0" encoding="UTF-8" standalone="no"?>
<!DOCTYPE svg PUBLIC "-//W3C//Dtd SVG 1.1//EN" "http://www.w3.org/Graphics/SVG/1.1/Dtd/svg11.dtd">
<svg xmlns="http://www.w3.org/2000/svg" width="5.888864mm" height="5.926375mm" viewBox="-8.8989538635067 -0.144520943219757 5.888864 5.926375" version="1.1" preserveAspectratio="xMidYMid">
  <!--SVG version of Rhinoceros 5.0 file untitled.3dm-->
  <!-- Millimeters in Rhinoceros file-->
  <!-- Millimeters in SVG file-->
  <!--Export Rhino to SVG, version 0.3, 21 of November 2016, Laurent Delrieu email:l[dot]delrieu[at]neuf.fr-->
  <g id="Default" stroke-width="0.17" stroke="rgb(0,0,0)" stroke-opacity="1" stroke-linecap="round" stroke-linejoin="round" fill="none">
    <path d="M -3.243769 3.059741 C-3.366196,3.483688 -3.488623,3.907635 -3.61105,4.331582 C-3.729305,4.125882 -3.847561,3.920182 -3.965817,3.714482 C-3.725134,3.496235 -3.484451,3.277988 -3.243769,3.059741 z" fill="none" />
    <path d="M -3.243769 3.059741 C-3.484451,3.277988 -3.725134,3.496235 -3.965817,3.714482 C-3.932442,3.268992 -3.899068,2.823501 -3.865694,2.37801 C-3.658385,2.605254 -3.451077,2.832497 -3.243769,3.059741 z" fill="none" />
    <path d="M -3.243769 3.059741 C-3.451077,2.832497 -3.658385,2.605254 -3.865694,2.37801 C-3.715961,2.163545 -3.566229,1.94908 -3.416496,1.734615 C-3.35892,2.176324 -3.301344,2.618032 -3.243769,3.059741 z" fill="none" />
    <path d="M -3.416496 1.734615 C-3.566229,1.94908 -3.715961,2.163545 -3.865694,2.37801 C-4.010946,1.965194 -4.156199,1.552378 -4.301452,1.139562 C-4.006467,1.337913 -3.711481,1.536264 -3.416496,1.734615 z" fill="none" />
    <path d="M -3.416496 1.734615 C-3.711481,1.536264 -4.006467,1.337913 -4.301452,1.139562 C-4.231139,0.977457 -4.160826,0.815353 -4.090513,0.653249 C-3.865841,1.013704 -3.641168,1.374159 -3.416496,1.734615 z" fill="none" />
    <path d="M -4.090513 0.653249 C-4.160826,0.815353 -4.231139,0.977457 -4.301452,1.139562 C-4.592771,0.851958 -4.884091,0.564355 -5.17541,0.276752 C-4.813778,0.402251 -4.452145,0.52775 -4.090513,0.653249 z" fill="none" />
    <path d="M -5.17541 0.276752 C-4.884091,0.564355 -4.592771,0.851958 -4.301452,1.139562 C-4.709173,1.094049 -5.116895,1.048537 -5.524616,1.003025 C-5.408214,0.760934 -5.291812,0.518843 -5.17541,0.276752 z" fill="none" />
    <path d="M -5.17541 0.276752 C-5.291812,0.518843 -5.408214,0.760934 -5.524616,1.003025 C-5.838846,0.797995 -6.153075,0.592966 -6.467305,0.387936 C-6.036674,0.350875 -5.606042,0.313813 -5.17541,0.276752 z" fill="none" />
    <path d="M -5.17541 0.276752 C-5.606042,0.313813 -6.036674,0.350875 -6.467305,0.387936 C-6.35595,0.240075 -6.244595,0.092213 -6.13324,-0.055648 C-5.813963,0.055152 -5.494687,0.165952 -5.17541,0.276752 z" fill="none" />
    <path d="M -6.13324 -0.055648 C-6.244595,0.092213 -6.35595,0.240075 -6.467305,0.387936 C-6.773478,0.377664 -7.079651,0.367393 -7.385824,0.357121 C-6.968296,0.219531 -6.550768,0.081942 -6.13324,-0.055648 z" fill="none" />
    <path d="M -8.665275 2.577592 C-8.542848,2.153645 -8.420421,1.729698 -8.297994,1.30575 C-8.179738,1.51145 -8.061483,1.71715 -7.943227,1.92285 C-8.18391,2.141098 -8.424593,2.359345 -8.665275,2.577592 z" fill="none" />
    <path d="M -8.665275 2.577592 C-8.424593,2.359345 -8.18391,2.141098 -7.943227,1.92285 C-7.976602,2.368341 -8.009976,2.813832 -8.04335,3.259322 C-8.250658,3.032079 -8.457967,2.804835 -8.665275,2.577592 z" fill="none" />
    <path d="M -8.665275 2.577592 C-8.457967,2.804835 -8.250658,3.032079 -8.04335,3.259322 C-8.193083,3.473788 -8.342815,3.688253 -8.492548,3.902718 C-8.550124,3.461009 -8.607699,3.0193 -8.665275,2.577592 z" fill="none" />
    <path d="M -8.492548 3.902718 C-8.342815,3.688253 -8.193083,3.473788 -8.04335,3.259322 C-7.898097,3.672139 -7.752845,4.084955 -7.607592,4.497771 C-7.902577,4.29942 -8.197562,4.101069 -8.492548,3.902718 z" fill="none" />
    <path d="M -8.492548 3.902718 C-8.197562,4.101069 -7.902577,4.29942 -7.607592,4.497771 C-7.677905,4.659875 -7.748218,4.82198 -7.818531,4.984084 C-8.043203,4.623629 -8.267876,4.263173 -8.492548,3.902718 z" fill="none" />
    <path d="M -7.818531 4.984084 C-7.748218,4.82198 -7.677905,4.659875 -7.607592,4.497771 C-7.316272,4.785374 -7.024953,5.072978 -6.733634,5.360581 C-7.095266,5.235082 -7.456899,5.109583 -7.818531,4.984084 z" fill="none" />
    <path d="M -6.733634 5.360581 C-7.024953,5.072978 -7.316272,4.785374 -7.607592,4.497771 C-7.199871,4.543283 -6.792149,4.588796 -6.384428,4.634308 C-6.50083,4.876399 -6.617232,5.11849 -6.733634,5.360581 z" fill="none" />
    <path d="M -6.733634 5.360581 C-6.617232,5.11849 -6.50083,4.876399 -6.384428,4.634308 C-6.070198,4.839338 -5.755968,5.044367 -5.441739,5.249397 C-5.87237,5.286458 -6.303002,5.32352 -6.733634,5.360581 z" fill="none" />
    <path d="M -6.733634 5.360581 C-6.303002,5.32352 -5.87237,5.286458 -5.441739,5.249397 C-5.553094,5.397258 -5.664449,5.54512 -5.775804,5.692981 C-6.09508,5.582181 -6.414357,5.471381 -6.733634,5.360581 z" fill="none" />
    <path d="M -4.52322 5.280212 C-4.940748,5.417801 -5.358276,5.555391 -5.775804,5.692981 C-5.664449,5.54512 -5.553094,5.397258 -5.441739,5.249397 C-5.135566,5.259668 -4.829393,5.26994 -4.52322,5.280212 z" fill="none" />
    <path d="M -5.441739 5.249397 C-5.755968,5.044367 -6.070198,4.839338 -6.384428,4.634308 C-5.955367,4.51678 -5.526306,4.399251 -5.097244,4.281723 C-5.212076,4.604281 -5.326907,4.926839 -5.441739,5.249397 z" fill="none" />
    <path d="M -5.097244 4.281723 C-5.526306,4.399251 -5.955367,4.51678 -6.384428,4.634308 C-6.277695,4.24962 -6.170962,3.864932 -6.064229,3.480244 C-5.741901,3.747404 -5.419573,4.014563 -5.097244,4.281723 z" fill="none" />
    <path d="M -5.097244 4.281723 C-5.419573,4.014563 -5.741901,3.747404 -6.064229,3.480244 C-5.649334,3.322455 -5.234439,3.164666 -4.819544,3.006876 C-4.912111,3.431825 -5.004678,3.856774 -5.097244,4.281723 z" fill="none" />
    <path d="M -5.097244 4.281723 C-5.004678,3.856774 -4.912111,3.431825 -4.819544,3.006876 C-4.534968,3.242745 -4.250392,3.478614 -3.965817,3.714482 C-4.342959,3.903563 -4.720102,4.092643 -5.097244,4.281723 z" fill="none" />
    <path d="M -3.865694 2.37801 C-3.899068,2.823501 -3.932442,3.268992 -3.965817,3.714482 C-4.250392,3.478614 -4.534968,3.242745 -4.819544,3.006876 C-4.501594,2.797254 -4.183644,2.587632 -3.865694,2.37801 z" fill="none" />
    <path d="M -4.819544 3.006876 C-5.234439,3.164666 -5.649334,3.322455 -6.064229,3.480244 C-5.991091,3.039192 -5.917953,2.59814 -5.844814,2.157088 C-5.503058,2.440351 -5.161301,2.723614 -4.819544,3.006876 z" fill="none" />
    <path d="M -5.844814 2.157088 C-5.917953,2.59814 -5.991091,3.039192 -6.064229,3.480244 C-6.405986,3.196982 -6.747743,2.913719 -7.0895,2.630457 C-6.674605,2.472667 -6.259709,2.314878 -5.844814,2.157088 z" fill="none" />
    <path d="M -5.844814 2.157088 C-6.259709,2.314878 -6.674605,2.472667 -7.0895,2.630457 C-6.996933,2.205508 -6.904366,1.780559 -6.811799,1.35561 C-6.489471,1.622769 -6.167143,1.889929 -5.844814,2.157088 z" fill="none" />
    <path d="M -5.844814 2.157088 C-6.167143,1.889929 -6.489471,1.622769 -6.811799,1.35561 C-6.382738,1.238082 -5.953677,1.120553 -5.524616,1.003025 C-5.631349,1.387713 -5.738082,1.772401 -5.844814,2.157088 z" fill="none" />
    <path d="M -5.524616 1.003025 C-5.953677,1.120553 -6.382738,1.238082 -6.811799,1.35561 C-6.696968,1.033052 -6.582137,0.710494 -6.467305,0.387936 C-6.153075,0.592966 -5.838846,0.797995 -5.524616,1.003025 z" fill="none" />
    <path d="M -6.811799 1.35561 C-6.904366,1.780559 -6.996933,2.205508 -7.0895,2.630457 C-7.374075,2.394588 -7.658651,2.158719 -7.943227,1.92285 C-7.566085,1.73377 -7.188942,1.54469 -6.811799,1.35561 z" fill="none" />
    <path d="M -8.04335 3.259322 C-8.009976,2.813832 -7.976602,2.368341 -7.943227,1.92285 C-7.658651,2.158719 -7.374075,2.394588 -7.0895,2.630457 C-7.40745,2.840079 -7.7254,3.049701 -8.04335,3.259322 z" fill="none" />
    <path d="M -4.301452 1.139562 C-4.156199,1.552378 -4.010946,1.965194 -3.865694,2.37801 C-4.183644,2.587632 -4.501594,2.797254 -4.819544,3.006876 C-5.161301,2.723614 -5.503058,2.440351 -5.844814,2.157088 C-5.738082,1.772401 -5.631349,1.387713 -5.524616,1.003025 C-5.116895,1.048537 -4.709173,1.094049 -4.301452,1.139562 z" fill="none" />
    <path d="M -7.607592 4.497771 C-7.752845,4.084955 -7.898097,3.672139 -8.04335,3.259322 C-7.7254,3.049701 -7.40745,2.840079 -7.0895,2.630457 C-6.747743,2.913719 -6.405986,3.196982 -6.064229,3.480244 C-6.170962,3.864932 -6.277695,4.24962 -6.384428,4.634308 C-6.792149,4.588796 -7.199871,4.543283 -7.607592,4.497771 z" fill="none" />
    <path d="M -7.385824 0.357121 C-7.079651,0.367393 -6.773478,0.377664 -6.467305,0.387936 C-6.582137,0.710494 -6.696968,1.033052 -6.811799,1.35561 C-7.188942,1.54469 -7.566085,1.73377 -7.943227,1.92285 C-8.061483,1.71715 -8.179738,1.51145 -8.297994,1.30575 C-7.993937,0.989541 -7.689881,0.673331 -7.385824,0.357121 z" fill="none" />
    <path d="M -3.965817 3.714482 C-3.847561,3.920182 -3.729305,4.125882 -3.61105,4.331582 C-3.915106,4.647792 -4.219163,4.964002 -4.52322,5.280212 C-4.829393,5.26994 -5.135566,5.259668 -5.441739,5.249397 C-5.326907,4.926839 -5.212076,4.604281 -5.097244,4.281723 C-4.720102,4.092643 -4.342959,3.903563 -3.965817,3.714482 z" fill="none" />
    <path d="M -5.775804 5.692981 C-5.705894,5.669944 -5.635985,5.646906 -5.566075,5.623868 C-5.670389,5.634967 -5.774703,5.646065 -5.879016,5.657163 C-5.844612,5.669102 -5.810208,5.681042 -5.775804,5.692981 z" fill="none" />
    <path d="M -5.566075 5.623868 C-5.635985,5.646906 -5.705894,5.669944 -5.775804,5.692981 C-5.358276,5.555391 -4.940748,5.417801 -4.52322,5.280212 C-4.579635,5.298802 -4.636051,5.317393 -4.692467,5.335984 C-4.98367,5.431946 -5.274872,5.527907 -5.566075,5.623868 z" fill="none" />
    <path d="M -4.692467 5.335984 C-4.636051,5.317393 -4.579635,5.298802 -4.52322,5.280212 C-4.408478,5.186817 -4.293736,5.093423 -4.178995,5.000028 C-4.350152,5.112014 -4.521309,5.223999 -4.692467,5.335984 z" fill="none" />
    <path d="M -4.178995 5.000028 C-4.293736,5.093423 -4.408478,5.186817 -4.52322,5.280212 C-4.219163,4.964002 -3.915106,4.647792 -3.61105,4.331582 C-3.655967,4.409536 -3.700885,4.48749 -3.745802,4.565443 C-3.8902,4.710305 -4.034597,4.855167 -4.178995,5.000028 z" fill="none" />
    <path d="M -3.745802 4.565443 C-3.700885,4.48749 -3.655967,4.409536 -3.61105,4.331582 C-3.502892,4.143875 -3.394734,3.956168 -3.286575,3.768462 C-3.439651,4.034122 -3.592727,4.299783 -3.745802,4.565443 z" fill="none" />
    <path d="M -3.286575 3.768462 C-3.394734,3.956168 -3.502892,4.143875 -3.61105,4.331582 C-3.488623,3.907635 -3.366196,3.483688 -3.243769,3.059741 C-3.225996,3.196092 -3.208223,3.332443 -3.190449,3.468794 C-3.222491,3.568683 -3.254533,3.668572 -3.286575,3.768462 z" fill="none" />
    <path d="M -3.416496 1.734615 C-3.641168,1.374159 -3.865841,1.013704 -4.090513,0.653249 C-3.984728,0.783212 -3.878944,0.913176 -3.77316,1.043139 C-3.662923,1.207259 -3.552687,1.37138 -3.44245,1.5355 C-3.433799,1.601872 -3.425147,1.668243 -3.416496,1.734615 z" fill="none" />
    <path d="M -3.77316 1.043139 C-3.878944,0.913176 -3.984728,0.783212 -4.090513,0.653249 C-4.123055,0.641955 -4.155596,0.630662 -4.188138,0.619369 C-4.049812,0.760626 -3.911486,0.901883 -3.77316,1.043139 z" fill="none" />
    <path d="M -6.13324 -0.055648 C-6.550768,0.081942 -6.968296,0.219531 -7.385824,0.357121 C-7.329408,0.33853 -7.272993,0.319939 -7.216577,0.301349 C-6.925374,0.205387 -6.634171,0.109426 -6.342968,0.013464 C-6.273059,-0.009573 -6.203149,-0.032611 -6.13324,-0.055648 z" fill="none" />
    <path d="M -6.342968 0.013464 C-6.238655,0.002366 -6.134341,-0.008732 -6.030027,-0.01983 C-6.064432,-0.031769 -6.098836,-0.043709 -6.13324,-0.055648 C-6.203149,-0.032611 -6.273059,-0.009573 -6.342968,0.013464 z" fill="none" />
    <path d="M -7.216577 0.301349 C-7.272993,0.319939 -7.329408,0.33853 -7.385824,0.357121 C-7.500566,0.450516 -7.615307,0.54391 -7.730049,0.637304 C-7.558892,0.525319 -7.387734,0.413334 -7.216577,0.301349 z" fill="none" />
    <path d="M -7.730049 0.637304 C-7.615307,0.54391 -7.500566,0.450516 -7.385824,0.357121 C-7.689881,0.673331 -7.993937,0.989541 -8.297994,1.30575 C-8.253077,1.227797 -8.208159,1.149843 -8.163242,1.071889 C-8.018844,0.927028 -7.874447,0.782166 -7.730049,0.637304 z" fill="none" />
    <path d="M -8.163242 1.071889 C-8.208159,1.149843 -8.253077,1.227797 -8.297994,1.30575 C-8.406152,1.493457 -8.51431,1.681164 -8.622468,1.868871 C-8.469393,1.603211 -8.316317,1.33755 -8.163242,1.071889 z" fill="none" />
    <path d="M -8.622468 1.868871 C-8.51431,1.681164 -8.406152,1.493457 -8.297994,1.30575 C-8.420421,1.729698 -8.542848,2.153645 -8.665275,2.577592 C-8.683048,2.441241 -8.700821,2.304889 -8.718594,2.168538 C-8.686552,2.068649 -8.65451,1.96876 -8.622468,1.868871 z" fill="none" />
    <path d="M -8.492548 3.902718 C-8.267876,4.263173 -8.043203,4.623629 -7.818531,4.984084 C-7.924315,4.854121 -8.0301,4.724157 -8.135884,4.594194 C-8.24612,4.430073 -8.356357,4.265953 -8.466594,4.101833 C-8.475245,4.035461 -8.483896,3.969089 -8.492548,3.902718 z" fill="none" />
    <path d="M -8.135884 4.594194 C-8.0301,4.724157 -7.924315,4.854121 -7.818531,4.984084 C-7.785989,4.995377 -7.753447,5.006671 -7.720906,5.017964 C-7.859232,4.876707 -7.997558,4.73545 -8.135884,4.594194 z" fill="none" />
    <path d="M -3.190449 3.468794 C-3.208223,3.332443 -3.225996,3.196092 -3.243769,3.059741 C-3.301344,2.618032 -3.35892,2.176324 -3.416496,1.734615 C-3.425147,1.668243 -3.433799,1.601872 -3.44245,1.5355 C-3.35845,2.179932 -3.27445,2.824363 -3.190449,3.468794 z" fill="none" />
    <path d="M -4.090513 0.653249 C-4.452145,0.52775 -4.813778,0.402251 -5.17541,0.276752 C-5.494687,0.165952 -5.813963,0.055152 -6.13324,-0.055648 C-6.098836,-0.043709 -6.064432,-0.031769 -6.030027,-0.01983 C-5.416064,0.193236 -4.802101,0.406303 -4.188138,0.619369 C-4.155596,0.630662 -4.123055,0.641955 -4.090513,0.653249 z" fill="none" />
    <path d="M -8.718594 2.168538 C-8.700821,2.304889 -8.683048,2.441241 -8.665275,2.577592 C-8.607699,3.0193 -8.550124,3.461009 -8.492548,3.902718 C-8.483896,3.969089 -8.475245,4.035461 -8.466594,4.101833 C-8.550594,3.457401 -8.634594,2.81297 -8.718594,2.168538 z" fill="none" />
    <path d="M -7.818531 4.984084 C-7.456899,5.109583 -7.095266,5.235082 -6.733634,5.360581 C-6.414357,5.471381 -6.09508,5.582181 -5.775804,5.692981 C-5.810208,5.681042 -5.844612,5.669102 -5.879016,5.657163 C-6.49298,5.444096 -7.106943,5.23103 -7.720906,5.017964 C-7.753447,5.006671 -7.785989,4.995377 -7.818531,4.984084 z" fill="none" />
  </g>
</svg>