<?xml version="1.0" encoding="UTF-8" standalone="no"?>
<!DOCTYPE svg PUBLIC "-//W3C//Dtd SVG 1.1//EN" "http://www.w3.org/Graphics/SVG/1.1/Dtd/svg11.dtd">
<svg xmlns="http://www.w3.org/2000/svg" width="7.79172mm" height="7.959506mm" viewBox="3.88191438264001 -3.97975317305093 7.79172 7.959506" version="1.1" preserveAspectratio="xMidYMid">
  <!--SVG version of Rhinoceros 5.0 file untitled.3dm-->
  <!-- Millimeters in Rhinoceros file-->
  <!-- Millimeters in SVG file-->
  <!--Export Rhino to SVG, version 0.3, 21 of November 2016, Laurent Delrieu email:l[dot]delrieu[at]neuf.fr-->
  <g id="Default" stroke-width="0.09" stroke="rgb(0,0,0)" stroke-opacity="1" stroke-linecap="round" stroke-linejoin="round" fill="none">
    <path d="M 7.915367 1.462625 C9.000872,0.975084 10.086377,0.487542 11.171883,0 C9.630729,-1.006894 8.089576,-2.013789 6.548422,-3.020683 C7.00407,-1.526247 7.459718,-0.031811 7.915367,1.462625 z" fill="none" />
    <path d="M 7.915367 1.462625 C7.111737,1.597379 6.308108,1.732132 5.504478,1.866885 C7.393613,1.24459 9.282748,0.622295 11.171883,0 C10.086377,0.487542 9.000872,0.975084 7.915367,1.462625 z" fill="none" />
    <path d="M 7.915367 1.462625 C7.459718,-0.031811 7.00407,-1.526247 6.548422,-3.020683 C6.200441,-1.391494 5.85246,0.237696 5.504478,1.866885 C6.308108,1.732132 7.111737,1.597379 7.915367,1.462625 z" fill="none" />
    <path d="M 7.915367 -1.462625 C7.111737,-1.597379 6.308108,-1.732132 5.504478,-1.866885 C5.85246,-0.237696 6.200441,1.391494 6.548422,3.020683 C7.00407,1.526247 7.459718,0.031811 7.915367,-1.462625 z" fill="none" />
    <path d="M 7.915367 -1.462625 C9.000872,-0.975084 10.086377,-0.487542 11.171883,0 C9.282748,-0.622295 7.393613,-1.24459 5.504478,-1.866885 C6.308108,-1.732132 7.111737,-1.597379 7.915367,-1.462625 z" fill="none" />
    <path d="M 7.915367 -1.462625 C7.459718,0.031811 7.00407,1.526247 6.548422,3.020683 C8.089576,2.013789 9.630729,1.006894 11.171883,0 C10.086377,-0.487542 9.000872,-0.975084 7.915367,-1.462625 z" fill="none" />
    <path d="M 5.713891 1.462625 C7.159618,1.597379 8.605344,1.732132 10.05107,1.866885 C8.883521,0.237696 7.715971,-1.391494 6.548422,-3.020683 C6.270245,-1.526247 5.992068,-0.031811 5.713891,1.462625 z" fill="none" />
    <path d="M 5.713891 1.462625 C6.596572,0.975084 7.479253,0.487542 8.361934,0 C8.92498,0.622295 9.488025,1.24459 10.05107,1.866885 C8.605344,1.732132 7.159618,1.597379 5.713891,1.462625 z" fill="none" />
    <path d="M 5.713891 1.462625 C5.992068,-0.031811 6.270245,-1.526247 6.548422,-3.020683 C7.152926,-2.013789 7.75743,-1.006894 8.361934,0 C7.479253,0.487542 6.596572,0.975084 5.713891,1.462625 z" fill="none" />
    <path d="M 5.713891 -1.462625 C6.596572,-0.975084 7.479253,-0.487542 8.361934,0 C7.75743,1.006894 7.152926,2.013789 6.548422,3.020683 C6.270245,1.526247 5.992068,0.031811 5.713891,-1.462625 z" fill="none" />
    <path d="M 5.713891 -1.462625 C7.159618,-1.597379 8.605344,-1.732132 10.05107,-1.866885 C9.488025,-1.24459 8.92498,-0.622295 8.361934,0 C7.479253,-0.487542 6.596572,-0.975084 5.713891,-1.462625 z" fill="none" />
    <path d="M 5.713891 -1.462625 C5.992068,0.031811 6.270245,1.526247 6.548422,3.020683 C7.715971,1.391494 8.883521,-0.237696 10.05107,-1.866885 C8.605344,-1.732132 7.159618,-1.597379 5.713891,-1.462625 z" fill="none" />
    <path d="M 9.841658 1.462625 C8.395931,1.597379 6.950205,1.732132 5.504478,1.866885 C6.672028,0.237696 7.839577,-1.391494 9.007127,-3.020683 C9.285304,-1.526247 9.563481,-0.031811 9.841658,1.462625 z" fill="none" />
    <path d="M 9.841658 1.462625 C8.958977,0.975084 8.076296,0.487542 7.193615,0 C6.630569,0.622295 6.067524,1.24459 5.504478,1.866885 C6.950205,1.732132 8.395931,1.597379 9.841658,1.462625 z" fill="none" />
    <path d="M 9.841658 1.462625 C9.563481,-0.031811 9.285304,-1.526247 9.007127,-3.020683 C8.402623,-2.013789 7.798119,-1.006894 7.193615,0 C8.076296,0.487542 8.958977,0.975084 9.841658,1.462625 z" fill="none" />
    <path d="M 9.841658 -1.462625 C8.958977,-0.975084 8.076296,-0.487542 7.193615,0 C7.798119,1.006894 8.402623,2.013789 9.007127,3.020683 C9.285304,1.526247 9.563481,0.031811 9.841658,-1.462625 z" fill="none" />
    <path d="M 9.841658 -1.462625 C8.395931,-1.597379 6.950205,-1.732132 5.504478,-1.866885 C6.067524,-1.24459 6.630569,-0.622295 7.193615,0 C8.076296,-0.487542 8.958977,-0.975084 9.841658,-1.462625 z" fill="none" />
    <path d="M 9.841658 -1.462625 C9.563481,0.031811 9.285304,1.526247 9.007127,3.020683 C7.839577,1.391494 6.672028,-0.237696 5.504478,-1.866885 C6.950205,-1.732132 8.395931,-1.597379 9.841658,-1.462625 z" fill="none" />
    <path d="M 7.640182 1.462625 C6.554677,0.975084 5.469172,0.487542 4.383666,0 C5.92482,-1.006894 7.465973,-2.013789 9.007127,-3.020683 C8.551479,-1.526247 8.09583,-0.031811 7.640182,1.462625 z" fill="none" />
    <path d="M 7.640182 1.462625 C8.443812,1.597379 9.247441,1.732132 10.05107,1.866885 C8.161936,1.24459 6.272801,0.622295 4.383666,0 C5.469172,0.487542 6.554677,0.975084 7.640182,1.462625 z" fill="none" />
    <path d="M 7.640182 1.462625 C8.09583,-0.031811 8.551479,-1.526247 9.007127,-3.020683 C9.355108,-1.391494 9.703089,0.237696 10.05107,1.866885 C9.247441,1.732132 8.443812,1.597379 7.640182,1.462625 z" fill="none" />
    <path d="M 7.640182 -1.462625 C8.443812,-1.597379 9.247441,-1.732132 10.05107,-1.866885 C9.703089,-0.237696 9.355108,1.391494 9.007127,3.020683 C8.551479,1.526247 8.09583,0.031811 7.640182,-1.462625 z" fill="none" />
    <path d="M 7.640182 -1.462625 C6.554677,-0.975084 5.469172,-0.487542 4.383666,0 C6.272801,-0.622295 8.161936,-1.24459 10.05107,-1.866885 C9.247441,-1.732132 8.443812,-1.597379 7.640182,-1.462625 z" fill="none" />
    <path d="M 7.640182 -1.462625 C8.09583,0.031811 8.551479,1.526247 9.007127,3.020683 C7.465973,2.013789 5.92482,1.006894 4.383666,0 C5.469172,-0.487542 6.554677,-0.975084 7.640182,-1.462625 z" fill="none" />
    <path d="M 8.963549 0 C8.978075,1.006894 8.992601,2.013789 9.007127,3.020683 C9.007127,1.006894 9.007127,-1.006894 9.007127,-3.020683 C8.992601,-2.013789 8.978075,-1.006894 8.963549,0 z" fill="none" />
    <path d="M 8.963549 0 C7.436921,0 5.910294,0 4.383666,0 C5.92482,1.006894 7.465973,2.013789 9.007127,3.020683 C8.992601,2.013789 8.978075,1.006894 8.963549,0 z" fill="none" />
    <path d="M 8.963549 0 C8.978075,-1.006894 8.992601,-2.013789 9.007127,-3.020683 C7.465973,-2.013789 5.92482,-1.006894 4.383666,0 C5.910294,0 7.436921,0 8.963549,0 z" fill="none" />
    <path d="M 5.401487 0 C5.998863,0 6.596239,0 7.193615,0 C7.798119,-1.006894 8.402623,-2.013789 9.007127,-3.020683 C7.805247,-2.013789 6.603367,-1.006894 5.401487,0 z" fill="none" />
    <path d="M 5.401487 0 C6.603367,1.006894 7.805247,2.013789 9.007127,3.020683 C8.402623,2.013789 7.798119,1.006894 7.193615,0 C6.596239,0 5.998863,0 5.401487,0 z" fill="none" />
    <path d="M 5.401487 0 C6.603367,-1.006894 7.805247,-2.013789 9.007127,-3.020683 C9.007127,-1.006894 9.007127,1.006894 9.007127,3.020683 C7.805247,2.013789 6.603367,1.006894 5.401487,0 z" fill="none" />
    <path d="M 10.154062 0 C9.556686,0 8.95931,0 8.361934,0 C7.75743,-1.006894 7.152926,-2.013789 6.548422,-3.020683 C7.750302,-2.013789 8.952182,-1.006894 10.154062,0 z" fill="none" />
    <path d="M 10.154062 0 C8.952182,1.006894 7.750302,2.013789 6.548422,3.020683 C7.152926,2.013789 7.75743,1.006894 8.361934,0 C8.95931,0 9.556686,0 10.154062,0 z" fill="none" />
    <path d="M 10.154062 0 C8.952182,-1.006894 7.750302,-2.013789 6.548422,-3.020683 C6.548422,-1.006894 6.548422,1.006894 6.548422,3.020683 C7.750302,2.013789 8.952182,1.006894 10.154062,0 z" fill="none" />
    <path d="M 6.592 0 C6.577474,1.006894 6.562948,2.013789 6.548422,3.020683 C6.548422,1.006894 6.548422,-1.006894 6.548422,-3.020683 C6.562948,-2.013789 6.577474,-1.006894 6.592,0 z" fill="none" />
    <path d="M 6.592 0 C8.118628,0 9.645255,0 11.171883,0 C9.630729,1.006894 8.089576,2.013789 6.548422,3.020683 C6.562948,2.013789 6.577474,1.006894 6.592,0 z" fill="none" />
    <path d="M 6.592 0 C6.577474,-1.006894 6.562948,-2.013789 6.548422,-3.020683 C8.089576,-2.013789 9.630729,-1.006894 11.171883,0 C9.645255,0 8.118628,0 6.592,0 z" fill="none" />
    <path d="M 6.219372 0.903952 C5.981074,-0.01966 5.742776,-0.943273 5.504478,-1.866885 C6.672028,-0.237696 7.839577,1.391494 9.007127,3.020683 C8.077875,2.315106 7.148624,1.609529 6.219372,0.903952 z" fill="none" />
    <path d="M 6.219372 0.903952 C7.496605,-0.01966 8.773838,-0.943273 10.05107,-1.866885 C8.53554,-1.866885 7.020009,-1.866885 5.504478,-1.866885 C5.742776,-0.943273 5.981074,-0.01966 6.219372,0.903952 z" fill="none" />
    <path d="M 6.219372 0.903952 C7.148624,1.609529 8.077875,2.315106 9.007127,3.020683 C9.355108,1.391494 9.703089,-0.237696 10.05107,-1.866885 C8.773838,-0.943273 7.496605,-0.01966 6.219372,0.903952 z" fill="none" />
    <path d="M 6.219372 -0.903952 C7.496605,0.01966 8.773838,0.943273 10.05107,1.866885 C9.703089,0.237696 9.355108,-1.391494 9.007127,-3.020683 C8.077875,-2.315106 7.148624,-1.609529 6.219372,-0.903952 z" fill="none" />
    <path d="M 6.219372 -0.903952 C5.981074,0.01966 5.742776,0.943273 5.504478,1.866885 C7.020009,1.866885 8.53554,1.866885 10.05107,1.866885 C8.773838,0.943273 7.496605,0.01966 6.219372,-0.903952 z" fill="none" />
    <path d="M 6.219372 -0.903952 C7.148624,-1.609529 8.077875,-2.315106 9.007127,-3.020683 C7.839577,-1.391494 6.672028,0.237696 5.504478,1.866885 C5.742776,0.943273 5.981074,0.01966 6.219372,-0.903952 z" fill="none" />
    <path d="M 9.336177 0.903952 C9.574475,-0.01966 9.812772,-0.943273 10.05107,-1.866885 C8.883521,-0.237696 7.715971,1.391494 6.548422,3.020683 C7.477674,2.315106 8.406925,1.609529 9.336177,0.903952 z" fill="none" />
    <path d="M 9.336177 0.903952 C8.058944,-0.01966 6.781711,-0.943273 5.504478,-1.866885 C7.020009,-1.866885 8.53554,-1.866885 10.05107,-1.866885 C9.812772,-0.943273 9.574475,-0.01966 9.336177,0.903952 z" fill="none" />
    <path d="M 9.336177 0.903952 C8.406925,1.609529 7.477674,2.315106 6.548422,3.020683 C6.200441,1.391494 5.85246,-0.237696 5.504478,-1.866885 C6.781711,-0.943273 8.058944,-0.01966 9.336177,0.903952 z" fill="none" />
    <path d="M 9.336177 -0.903952 C8.058944,0.01966 6.781711,0.943273 5.504478,1.866885 C5.85246,0.237696 6.200441,-1.391494 6.548422,-3.020683 C7.477674,-2.315106 8.406925,-1.609529 9.336177,-0.903952 z" fill="none" />
    <path d="M 9.336177 -0.903952 C9.574475,0.01966 9.812772,0.943273 10.05107,1.866885 C8.53554,1.866885 7.020009,1.866885 5.504478,1.866885 C6.781711,0.943273 8.058944,0.01966 9.336177,-0.903952 z" fill="none" />
    <path d="M 9.336177 -0.903952 C8.406925,-1.609529 7.477674,-2.315106 6.548422,-3.020683 C7.715971,-1.391494 8.883521,0.237696 10.05107,1.866885 C9.812772,0.943273 9.574475,0.01966 9.336177,-0.903952 z" fill="none" />
    <path d="M 8.458068 2.366578 C7.099934,1.577718 5.7418,0.788859 4.383666,0 C5.709756,0 7.035845,0 8.361934,0 C8.393979,0.788859 8.426023,1.577718 8.458068,2.366578 z" fill="none" />
    <path d="M 8.458068 2.366578 C8.989069,0.955423 9.520069,-0.455731 10.05107,-1.866885 C8.161936,-1.24459 6.272801,-0.622295 4.383666,0 C5.7418,0.788859 7.099934,1.577718 8.458068,2.366578 z" fill="none" />
    <path d="M 8.458068 2.366578 C8.426023,1.577718 8.393979,0.788859 8.361934,0 C8.92498,-0.622295 9.488025,-1.24459 10.05107,-1.866885 C9.520069,-0.455731 8.989069,0.955423 8.458068,2.366578 z" fill="none" />
    <path d="M 8.458068 -2.366578 C8.989069,-0.955423 9.520069,0.455731 10.05107,1.866885 C9.488025,1.24459 8.92498,0.622295 8.361934,0 C8.393979,-0.788859 8.426023,-1.577718 8.458068,-2.366578 z" fill="none" />
    <path d="M 8.458068 -2.366578 C7.099934,-1.577718 5.7418,-0.788859 4.383666,0 C6.272801,0.622295 8.161936,1.24459 10.05107,1.866885 C9.520069,0.455731 8.989069,-0.955423 8.458068,-2.366578 z" fill="none" />
    <path d="M 8.458068 -2.366578 C8.426023,-1.577718 8.393979,-0.788859 8.361934,0 C7.035845,0 5.709756,0 4.383666,0 C5.7418,-0.788859 7.099934,-1.577718 8.458068,-2.366578 z" fill="none" />
    <path d="M 7.097481 2.366578 C6.56648,0.955423 6.035479,-0.455731 5.504478,-1.866885 C7.393613,-1.24459 9.282748,-0.622295 11.171883,0 C9.813749,0.788859 8.455615,1.577718 7.097481,2.366578 z" fill="none" />
    <path d="M 7.097481 2.366578 C7.129526,1.577718 7.16157,0.788859 7.193615,0 C6.630569,-0.622295 6.067524,-1.24459 5.504478,-1.866885 C6.035479,-0.455731 6.56648,0.955423 7.097481,2.366578 z" fill="none" />
    <path d="M 7.097481 2.366578 C8.455615,1.577718 9.813749,0.788859 11.171883,0 C9.845793,0 8.519704,0 7.193615,0 C7.16157,0.788859 7.129526,1.577718 7.097481,2.366578 z" fill="none" />
    <path d="M 7.097481 -2.366578 C7.129526,-1.577718 7.16157,-0.788859 7.193615,0 C8.519704,0 9.845793,0 11.171883,0 C9.813749,-0.788859 8.455615,-1.577718 7.097481,-2.366578 z" fill="none" />
    <path d="M 7.097481 -2.366578 C6.56648,-0.955423 6.035479,0.455731 5.504478,1.866885 C6.067524,1.24459 6.630569,0.622295 7.193615,0 C7.16157,-0.788859 7.129526,-1.577718 7.097481,-2.366578 z" fill="none" />
    <path d="M 7.097481 -2.366578 C8.455615,-1.577718 9.813749,-0.788859 11.171883,0 C9.282748,0.622295 7.393613,1.24459 5.504478,1.866885 C6.035479,0.455731 6.56648,-0.955423 7.097481,-2.366578 z" fill="none" />
  </g>
</svg>