<?xml version="1.0" encoding="UTF-8" standalone="no"?>
<!DOCTYPE svg PUBLIC "-//W3C//Dtd SVG 1.1//EN" "http://www.w3.org/Graphics/SVG/1.1/Dtd/svg11.dtd">
<svg xmlns="http://www.w3.org/2000/svg" width="8.609151mm" height="6.129391mm" viewBox="-13.4370329454643 -3.06469538577006 8.609151 6.129391" version="1.1" preserveAspectratio="xMidYMid">
  <!--SVG version of Rhinoceros 5.0 file untitled.3dm-->
  <!-- Millimeters in Rhinoceros file-->
  <!-- Millimeters in SVG file-->
  <!--Export Rhino to SVG, version 0.3, 21 of November 2016, Laurent Delrieu email:l[dot]delrieu[at]neuf.fr-->
  <g id="Default" stroke-width="0.09" stroke="rgb(0,0,0)" stroke-opacity="1" stroke-linecap="round" stroke-linejoin="round" fill="none">
    <path d="M -10.736266 0 C-11.072531,0.618982 -11.408796,1.237965 -11.745061,1.856947 C-11.745061,0.618982 -11.745061,-0.618982 -11.745061,-1.856947 C-11.408796,-1.237965 -11.072531,-0.618982 -10.736266,0 z" fill="none" />
    <path d="M -6.078429 0 C-7.007739,-0.618982 -7.937049,-1.237965 -8.866359,-1.856947 C-8.866359,-0.618982 -8.866359,0.618982 -8.866359,1.856947 C-7.937049,1.237965 -7.007739,0.618982 -6.078429,0 z" fill="none" />
    <path d="M -12.186486 0 C-11.257176,-0.618982 -10.327866,-1.237965 -9.398556,-1.856947 C-9.398556,-0.618982 -9.398556,0.618982 -9.398556,1.856947 C-10.327866,1.237965 -11.257176,0.618982 -12.186486,0 z" fill="none" />
    <path d="M -7.528649 0 C-7.192384,0.618982 -6.856119,1.237965 -6.519854,1.856947 C-6.519854,0.618982 -6.519854,-0.618982 -6.519854,-1.856947 C-6.856119,-1.237965 -7.192384,-0.618982 -7.528649,0 z" fill="none" />
    <path d="M -7.234095 1.147656 C-7.955582,0.146122 -8.677069,-0.855413 -9.398556,-1.856947 C-8.438989,-1.856947 -7.479422,-1.856947 -6.519854,-1.856947 C-6.757935,-0.855413 -6.996015,0.146122 -7.234095,1.147656 z" fill="none" />
    <path d="M -7.234095 -1.147656 C-6.996015,-0.146122 -6.757935,0.855413 -6.519854,1.856947 C-7.479422,1.856947 -8.438989,1.856947 -9.398556,1.856947 C-8.677069,0.855413 -7.955582,-0.146122 -7.234095,-1.147656 z" fill="none" />
    <path d="M -11.03082 1.147656 C-10.309333,0.146122 -9.587846,-0.855413 -8.866359,-1.856947 C-9.825926,-1.856947 -10.785494,-1.856947 -11.745061,-1.856947 C-11.50698,-0.855413 -11.2689,0.146122 -11.03082,1.147656 z" fill="none" />
    <path d="M -11.03082 -1.147656 C-11.2689,-0.146122 -11.50698,0.855413 -11.745061,1.856947 C-10.785494,1.856947 -9.825926,1.856947 -8.866359,1.856947 C-9.587846,0.855413 -10.309333,-0.146122 -11.03082,-1.147656 z" fill="none" />
    <path d="M -10.022025 3.004603 C-8.854635,2.622051 -7.687245,2.239499 -6.519854,1.856947 C-7.302023,1.856947 -8.084191,1.856947 -8.866359,1.856947 C-9.251581,2.239499 -9.636803,2.622051 -10.022025,3.004603 z" fill="none" />
    <path d="M -10.022025 3.004603 C-10.260106,2.003069 -10.498186,1.001534 -10.736266,0 C-9.568876,0.382552 -8.401486,0.765104 -7.234095,1.147656 C-8.163405,1.766639 -9.092715,2.385621 -10.022025,3.004603 z" fill="none" />
    <path d="M -10.022025 3.004603 C-10.35829,2.385621 -10.694555,1.766639 -11.03082,1.147656 C-11.416042,0.765104 -11.801264,0.382552 -12.186486,0 C-11.464999,1.001534 -10.743512,2.003069 -10.022025,3.004603 z" fill="none" />
    <path d="M -10.022025 -3.004603 C-9.636803,-2.622051 -9.251581,-2.239499 -8.866359,-1.856947 C-8.084191,-1.856947 -7.302023,-1.856947 -6.519854,-1.856947 C-7.687245,-2.239499 -8.854635,-2.622051 -10.022025,-3.004603 z" fill="none" />
    <path d="M -10.022025 -3.004603 C-10.743512,-2.003069 -11.464999,-1.001534 -12.186486,0 C-11.801264,-0.382552 -11.416042,-0.765104 -11.03082,-1.147656 C-10.694555,-1.766639 -10.35829,-2.385621 -10.022025,-3.004603 z" fill="none" />
    <path d="M -10.022025 -3.004603 C-9.092715,-2.385621 -8.163405,-1.766639 -7.234095,-1.147656 C-8.401486,-0.765104 -9.568876,-0.382552 -10.736266,0 C-10.498186,-1.001534 -10.260106,-2.003069 -10.022025,-3.004603 z" fill="none" />
    <path d="M -8.24289 3.004603 C-9.41028,2.622051 -10.57767,2.239499 -11.745061,1.856947 C-10.962893,1.856947 -10.180724,1.856947 -9.398556,1.856947 C-9.013334,2.239499 -8.628112,2.622051 -8.24289,3.004603 z" fill="none" />
    <path d="M -8.24289 3.004603 C-8.004809,2.003069 -7.766729,1.001534 -7.528649,0 C-8.696039,0.382552 -9.863429,0.765104 -11.03082,1.147656 C-10.10151,1.766639 -9.1722,2.385621 -8.24289,3.004603 z" fill="none" />
    <path d="M -8.24289 3.004603 C-7.906625,2.385621 -7.57036,1.766639 -7.234095,1.147656 C-6.848873,0.765104 -6.463651,0.382552 -6.078429,0 C-6.799916,1.001534 -7.521403,2.003069 -8.24289,3.004603 z" fill="none" />
    <path d="M -8.24289 -3.004603 C-8.628112,-2.622051 -9.013334,-2.239499 -9.398556,-1.856947 C-10.180724,-1.856947 -10.962893,-1.856947 -11.745061,-1.856947 C-10.57767,-2.239499 -9.41028,-2.622051 -8.24289,-3.004603 z" fill="none" />
    <path d="M -8.24289 -3.004603 C-7.521403,-2.003069 -6.799916,-1.001534 -6.078429,0 C-6.463651,-0.382552 -6.848873,-0.765104 -7.234095,-1.147656 C-7.57036,-1.766639 -7.906625,-2.385621 -8.24289,-3.004603 z" fill="none" />
    <path d="M -8.24289 -3.004603 C-9.1722,-2.385621 -10.10151,-1.766639 -11.03082,-1.147656 C-9.863429,-0.765104 -8.696039,-0.382552 -7.528649,0 C-7.766729,-1.001534 -8.004809,-2.003069 -8.24289,-3.004603 z" fill="none" />
    <path d="M -8.866359 1.856947 C-8.084191,1.856947 -7.302023,1.856947 -6.519854,1.856947 C-6.757935,0.855413 -6.996015,-0.146122 -7.234095,-1.147656 C-8.163405,-1.766639 -9.092715,-2.385621 -10.022025,-3.004603 C-10.35829,-2.385621 -10.694555,-1.766639 -11.03082,-1.147656 C-10.309333,-0.146122 -9.587846,0.855413 -8.866359,1.856947 z" fill="none" />
    <path d="M -8.866359 1.856947 C-9.825926,1.856947 -10.785494,1.856947 -11.745061,1.856947 C-11.408796,1.237965 -11.072531,0.618982 -10.736266,0 C-9.568876,-0.382552 -8.401486,-0.765104 -7.234095,-1.147656 C-6.848873,-0.765104 -6.463651,-0.382552 -6.078429,0 C-7.007739,0.618982 -7.937049,1.237965 -8.866359,1.856947 z" fill="none" />
    <path d="M -8.866359 1.856947 C-8.866359,0.618982 -8.866359,-0.618982 -8.866359,-1.856947 C-9.251581,-2.239499 -9.636803,-2.622051 -10.022025,-3.004603 C-10.260106,-2.003069 -10.498186,-1.001534 -10.736266,0 C-10.498186,1.001534 -10.260106,2.003069 -10.022025,3.004603 C-9.636803,2.622051 -9.251581,2.239499 -8.866359,1.856947 z" fill="none" />
    <path d="M -12.186486 0 C-11.257176,0.618982 -10.327866,1.237965 -9.398556,1.856947 C-8.438989,1.856947 -7.479422,1.856947 -6.519854,1.856947 C-6.856119,1.237965 -7.192384,0.618982 -7.528649,0 C-8.696039,-0.382552 -9.863429,-0.765104 -11.03082,-1.147656 C-11.416042,-0.765104 -11.801264,-0.382552 -12.186486,0 z" fill="none" />
    <path d="M -12.186486 0 C-11.801264,0.382552 -11.416042,0.765104 -11.03082,1.147656 C-9.863429,0.765104 -8.696039,0.382552 -7.528649,0 C-7.192384,-0.618982 -6.856119,-1.237965 -6.519854,-1.856947 C-7.479422,-1.856947 -8.438989,-1.856947 -9.398556,-1.856947 C-10.327866,-1.237965 -11.257176,-0.618982 -12.186486,0 z" fill="none" />
    <path d="M -12.186486 0 C-11.464999,-1.001534 -10.743512,-2.003069 -10.022025,-3.004603 C-8.854635,-2.622051 -7.687245,-2.239499 -6.519854,-1.856947 C-6.519854,-0.618982 -6.519854,0.618982 -6.519854,1.856947 C-7.687245,2.239499 -8.854635,2.622051 -10.022025,3.004603 C-10.743512,2.003069 -11.464999,1.001534 -12.186486,0 z" fill="none" />
    <path d="M -7.234095 1.147656 C-6.996015,0.146122 -6.757935,-0.855413 -6.519854,-1.856947 C-7.302023,-1.856947 -8.084191,-1.856947 -8.866359,-1.856947 C-9.587846,-0.855413 -10.309333,0.146122 -11.03082,1.147656 C-10.694555,1.766639 -10.35829,2.385621 -10.022025,3.004603 C-9.092715,2.385621 -8.163405,1.766639 -7.234095,1.147656 z" fill="none" />
    <path d="M -7.234095 1.147656 C-8.401486,0.765104 -9.568876,0.382552 -10.736266,0 C-11.072531,-0.618982 -11.408796,-1.237965 -11.745061,-1.856947 C-10.785494,-1.856947 -9.825926,-1.856947 -8.866359,-1.856947 C-7.937049,-1.237965 -7.007739,-0.618982 -6.078429,0 C-6.463651,0.382552 -6.848873,0.765104 -7.234095,1.147656 z" fill="none" />
    <path d="M -7.234095 1.147656 C-7.57036,1.766639 -7.906625,2.385621 -8.24289,3.004603 C-9.1722,2.385621 -10.10151,1.766639 -11.03082,1.147656 C-11.2689,0.146122 -11.50698,-0.855413 -11.745061,-1.856947 C-10.962893,-1.856947 -10.180724,-1.856947 -9.398556,-1.856947 C-8.677069,-0.855413 -7.955582,0.146122 -7.234095,1.147656 z" fill="none" />
    <path d="M -8.24289 -3.004603 C-9.41028,-2.622051 -10.57767,-2.239499 -11.745061,-1.856947 C-11.745061,-0.618982 -11.745061,0.618982 -11.745061,1.856947 C-10.57767,2.239499 -9.41028,2.622051 -8.24289,3.004603 C-7.521403,2.003069 -6.799916,1.001534 -6.078429,0 C-6.799916,-1.001534 -7.521403,-2.003069 -8.24289,-3.004603 z" fill="none" />
    <path d="M -8.24289 -3.004603 C-8.004809,-2.003069 -7.766729,-1.001534 -7.528649,0 C-7.766729,1.001534 -8.004809,2.003069 -8.24289,3.004603 C-8.628112,2.622051 -9.013334,2.239499 -9.398556,1.856947 C-9.398556,0.618982 -9.398556,-0.618982 -9.398556,-1.856947 C-9.013334,-2.239499 -8.628112,-2.622051 -8.24289,-3.004603 z" fill="none" />
    <path d="M -8.24289 -3.004603 C-7.906625,-2.385621 -7.57036,-1.766639 -7.234095,-1.147656 C-7.955582,-0.146122 -8.677069,0.855413 -9.398556,1.856947 C-10.180724,1.856947 -10.962893,1.856947 -11.745061,1.856947 C-11.50698,0.855413 -11.2689,-0.146122 -11.03082,-1.147656 C-10.10151,-1.766639 -9.1722,-2.385621 -8.24289,-3.004603 z" fill="none" />
  </g>
</svg>