<?xml version="1.0" encoding="UTF-8" standalone="no"?>
<!DOCTYPE svg PUBLIC "-//W3C//Dtd SVG 1.1//EN" "http://www.w3.org/Graphics/SVG/1.1/Dtd/svg11.dtd">
<svg xmlns="http://www.w3.org/2000/svg" width="7.931373mm" height="8.188472mm" viewBox="-6.79556700695512 -4.09423585734419 7.931373 8.188472" version="1.1" preserveAspectratio="xMidYMid">
  <!--SVG version of Rhinoceros 5.0 file untitled.3dm-->
  <!-- Millimeters in Rhinoceros file-->
  <!-- Millimeters in SVG file-->
  <!--Export Rhino to SVG, version 0.3, 21 of November 2016, Laurent Delrieu email:l[dot]delrieu[at]neuf.fr-->
  <g id="Default" stroke-width="0.1" stroke="rgb(0,0,0)" stroke-opacity="1" stroke-linecap="round" stroke-linejoin="round" fill="rgb(0,0,0)" fill-opacity="1" fill-rule="evenodd">
    <path d="M -2.543897 2.915067 C-3.426448,2.429222 -4.308999,1.943378 -5.19155,1.457533 C-5.220167,0.671421 -5.248784,-0.114692 -5.277401,-0.900805 C-4.366233,0.371152 -3.455065,1.643109 -2.543897,2.915067 z" />
    <path d="M -2.543897 -2.915067 C-3.455065,-1.643109 -4.366233,-0.371152 -5.277401,0.900805 C-5.248784,0.114692 -5.220167,-0.671421 -5.19155,-1.457533 C-4.308999,-1.943378 -3.426448,-2.429222 -2.543897,-2.915067 z" />
    <path d="M -1.446733 2.915067 C-1.992179,1.643109 -2.537626,0.371152 -3.083072,-0.900805 C-4.011926,-0.114692 -4.940781,0.671421 -5.869635,1.457533 C-4.395334,1.943378 -2.921033,2.429222 -1.446733,2.915067 z" />
    <path d="M -1.446733 -2.915067 C-2.921033,-2.429222 -4.395334,-1.943378 -5.869635,-1.457533 C-4.940781,-0.671421 -4.011926,0.114692 -3.083072,0.900805 C-2.537626,-0.371152 -1.992179,-1.643109 -1.446733,-2.915067 z" />
    <path d="M -4.213029 2.915067 C-3.667582,1.643109 -3.122135,0.371152 -2.576689,-0.900805 C-1.647835,-0.114692 -0.718981,0.671421 0.209874,1.457533 C-1.264427,1.943378 -2.738728,2.429222 -4.213029,2.915067 z" />
    <path d="M -4.213029 -2.915067 C-2.738728,-2.429222 -1.264427,-1.943378 0.209874,-1.457533 C-0.718981,-0.671421 -1.647835,0.114692 -2.576689,0.900805 C-3.122135,-0.371152 -3.667582,-1.643109 -4.213029,-2.915067 z" />
    <path d="M -3.115864 2.915067 C-2.233313,2.429222 -1.350762,1.943378 -0.468211,1.457533 C-0.439594,0.671421 -0.410977,-0.114692 -0.382361,-0.900805 C-1.293528,0.371152 -2.204696,1.643109 -3.115864,2.915067 z" />
    <path d="M -3.115864 -2.915067 C-2.204696,-1.643109 -1.293528,-0.371152 -0.382361,0.900805 C-0.410977,0.114692 -0.439594,-0.671421 -0.468211,-1.457533 C-1.350762,-1.943378 -2.233313,-2.429222 -3.115864,-2.915067 z" />
    <path d="M -3.221982 0 C-2.293127,-0.786113 -1.364273,-1.572226 -0.435419,-2.358338 C-0.435419,-0.786113 -0.435419,0.786113 -0.435419,2.358338 C-1.364273,1.572226 -2.293127,0.786113 -3.221982,0 z" />
    <path d="M -0.768648 0 C-0.797265,0.786113 -0.825882,1.572226 -0.854499,2.358338 C-0.854499,0.786113 -0.854499,-0.786113 -0.854499,-2.358338 C-0.825882,-1.572226 -0.797265,-0.786113 -0.768648,0 z" />
    <path d="M -4.891113 0 C-4.862496,0.786113 -4.83388,1.572226 -4.805263,2.358338 C-4.805263,0.786113 -4.805263,-0.786113 -4.805263,-2.358338 C-4.83388,-1.572226 -4.862496,-0.786113 -4.891113,0 z" />
    <path d="M -2.43778 0 C-3.366634,-0.786113 -4.295488,-1.572226 -5.224342,-2.358338 C-5.224342,-0.786113 -5.224342,0.786113 -5.224342,2.358338 C-4.295488,1.572226 -3.366634,0.786113 -2.43778,0 z" />
    <path d="M 0.189607 0.900805 C-0.692944,1.38665 -1.575495,1.872494 -2.458046,2.358338 C-3.049796,2.358338 -3.641545,2.358338 -4.233295,2.358338 C-2.758994,1.872494 -1.284694,1.38665 0.189607,0.900805 z" />
    <path d="M 0.189607 -0.900805 C-1.284694,-1.38665 -2.758994,-1.872494 -4.233295,-2.358338 C-3.641545,-2.358338 -3.049796,-2.358338 -2.458046,-2.358338 C-1.575495,-1.872494 -0.692944,-1.38665 0.189607,-0.900805 z" />
    <path d="M -5.849368 0.900805 C-4.966817,1.38665 -4.084266,1.872494 -3.201715,2.358338 C-2.609965,2.358338 -2.018216,2.358338 -1.426466,2.358338 C-2.900767,1.872494 -4.375067,1.38665 -5.849368,0.900805 z" />
    <path d="M -5.849368 -0.900805 C-4.375067,-1.38665 -2.900767,-1.872494 -1.426466,-2.358338 C-2.018216,-2.358338 -2.609965,-2.358338 -3.201715,-2.358338 C-4.084266,-1.872494 -4.966817,-1.38665 -5.849368,-0.900805 z" />
    <path d="M -3.168923 3.259144 C-4.080091,1.987186 -4.991259,0.715229 -5.902427,-0.556728 C-4.445812,-0.556728 -2.989198,-0.556728 -1.532583,-0.556728 C-2.07803,0.715229 -2.623476,1.987186 -3.168923,3.259144 z" />
    <path d="M -3.168923 -3.259144 C-2.623476,-1.987186 -2.07803,-0.715229 -1.532583,0.556728 C-2.989198,0.556728 -4.445812,0.556728 -5.902427,0.556728 C-4.991259,-0.715229 -4.080091,-1.987186 -3.168923,-3.259144 z" />
    <path d="M -2.490838 3.259144 C-1.57967,1.987186 -0.668502,0.715229 0.242666,-0.556728 C-1.213949,-0.556728 -2.670563,-0.556728 -4.127178,-0.556728 C-3.581731,0.715229 -3.036285,1.987186 -2.490838,3.259144 z" />
    <path d="M -2.490838 -3.259144 C-3.036285,-1.987186 -3.581731,-0.715229 -4.127178,0.556728 C-2.670563,0.556728 -1.213949,0.556728 0.242666,0.556728 C-0.668502,-0.715229 -1.57967,-1.987186 -2.490838,-3.259144 z" />
    <path d="M -4.858321 -0.900805 C-4.649979,-1.38665 -4.441637,-1.872494 -4.233295,-2.358338 C-4.233295,-1.757802 -4.233295,-1.157265 -4.233295,-0.556728 C-3.896191,-0.371152 -3.559086,-0.185576 -3.221982,0 C-3.559086,0.185576 -3.896191,0.371152 -4.233295,0.556728 C-4.233295,1.157265 -4.233295,1.757802 -4.233295,2.358338 C-4.441637,1.872494 -4.649979,1.38665 -4.858321,0.900805 C-5.195426,1.086381 -5.53253,1.271957 -5.869635,1.457533 C-5.661293,0.971689 -5.452951,0.485844 -5.244609,0 C-5.452951,-0.485844 -5.661293,-0.971689 -5.869635,-1.457533 C-5.53253,-1.271957 -5.195426,-1.086381 -4.858321,-0.900805 z" />
    <path d="M -3.502152 0.900805 C-3.154117,1.38665 -2.806081,1.872494 -2.458046,2.358338 C-2.458046,1.757802 -2.458046,1.157265 -2.458046,0.556728 C-1.894913,0.371152 -1.331781,0.185576 -0.768648,0 C-1.331781,-0.185576 -1.894913,-0.371152 -2.458046,-0.556728 C-2.458046,-1.157265 -2.458046,-1.757802 -2.458046,-2.358338 C-2.806081,-1.872494 -3.154117,-1.38665 -3.502152,-0.900805 C-4.065285,-1.086381 -4.628417,-1.271957 -5.19155,-1.457533 C-4.843515,-0.971689 -4.49548,-0.485844 -4.147444,0 C-4.49548,0.485844 -4.843515,0.971689 -5.19155,1.457533 C-4.628417,1.271957 -4.065285,1.086381 -3.502152,0.900805 z" />
    <path d="M -2.157609 0.900805 C-2.505645,1.38665 -2.85368,1.872494 -3.201715,2.358338 C-3.201715,1.757802 -3.201715,1.157265 -3.201715,0.556728 C-3.764848,0.371152 -4.327981,0.185576 -4.891113,0 C-4.327981,-0.185576 -3.764848,-0.371152 -3.201715,-0.556728 C-3.201715,-1.157265 -3.201715,-1.757802 -3.201715,-2.358338 C-2.85368,-1.872494 -2.505645,-1.38665 -2.157609,-0.900805 C-1.594477,-1.086381 -1.031344,-1.271957 -0.468211,-1.457533 C-0.816246,-0.971689 -1.164282,-0.485844 -1.512317,0 C-1.164282,0.485844 -0.816246,0.971689 -0.468211,1.457533 C-1.031344,1.271957 -1.594477,1.086381 -2.157609,0.900805 z" />
    <path d="M -0.80144 -0.900805 C-1.009782,-1.38665 -1.218124,-1.872494 -1.426466,-2.358338 C-1.426466,-1.757802 -1.426466,-1.157265 -1.426466,-0.556728 C-1.763571,-0.371152 -2.100675,-0.185576 -2.43778,0 C-2.100675,0.185576 -1.763571,0.371152 -1.426466,0.556728 C-1.426466,1.157265 -1.426466,1.757802 -1.426466,2.358338 C-1.218124,1.872494 -1.009782,1.38665 -0.80144,0.900805 C-0.464335,1.086381 -0.127231,1.271957 0.209874,1.457533 C0.001532,0.971689 -0.206811,0.485844 -0.415153,0 C-0.206811,-0.485844 0.001532,-0.971689 0.209874,-1.457533 C-0.127231,-1.271957 -0.464335,-1.086381 -0.80144,-0.900805 z" />
    <path d="M -1.479525 -2.014262 C-1.468594,-2.31453 -1.457663,-2.614798 -1.446733,-2.915067 C-1.238391,-2.429222 -1.030049,-1.943378 -0.821707,-1.457533 C-0.466916,-1.157265 -0.112125,-0.856997 0.242666,-0.556728 C0.016637,-0.556728 -0.209391,-0.556728 -0.435419,-0.556728 C-0.227077,-0.070884 -0.018735,0.414961 0.189607,0.900805 C-0.158428,0.414961 -0.506463,-0.070884 -0.854499,-0.556728 C-1.080527,-0.556728 -1.306555,-0.556728 -1.532583,-0.556728 C-1.521653,-0.856997 -1.510722,-1.157265 -1.499791,-1.457533 C-1.847826,-1.943378 -2.195862,-2.429222 -2.543897,-2.915067 C-2.189106,-2.614798 -1.834315,-2.31453 -1.479525,-2.014262 z" />
    <path d="M -1.479525 2.014262 C-1.834315,2.31453 -2.189106,2.614798 -2.543897,2.915067 C-2.195862,2.429222 -1.847826,1.943378 -1.499791,1.457533 C-1.510722,1.157265 -1.521653,0.856997 -1.532583,0.556728 C-1.306555,0.556728 -1.080527,0.556728 -0.854499,0.556728 C-0.506463,0.070884 -0.158428,-0.414961 0.189607,-0.900805 C-0.018735,-0.414961 -0.227077,0.070884 -0.435419,0.556728 C-0.209391,0.556728 0.016637,0.556728 0.242666,0.556728 C-0.112125,0.856997 -0.466916,1.157265 -0.821707,1.457533 C-1.030049,1.943378 -1.238391,2.429222 -1.446733,2.915067 C-1.457663,2.614798 -1.468594,2.31453 -1.479525,2.014262 z" />
    <path d="M -4.180236 -2.014262 C-4.191167,-2.31453 -4.202098,-2.614798 -4.213029,-2.915067 C-4.421371,-2.429222 -4.629713,-1.943378 -4.838055,-1.457533 C-5.192845,-1.157265 -5.547636,-0.856997 -5.902427,-0.556728 C-5.676399,-0.556728 -5.45037,-0.556728 -5.224342,-0.556728 C-5.432684,-0.070884 -5.641026,0.414961 -5.849368,0.900805 C-5.501333,0.414961 -5.153298,-0.070884 -4.805263,-0.556728 C-4.579234,-0.556728 -4.353206,-0.556728 -4.127178,-0.556728 C-4.138109,-0.856997 -4.149039,-1.157265 -4.15997,-1.457533 C-3.811935,-1.943378 -3.4639,-2.429222 -3.115864,-2.915067 C-3.470655,-2.614798 -3.825446,-2.31453 -4.180236,-2.014262 z" />
    <path d="M -4.180236 2.014262 C-3.825446,2.31453 -3.470655,2.614798 -3.115864,2.915067 C-3.4639,2.429222 -3.811935,1.943378 -4.15997,1.457533 C-4.149039,1.157265 -4.138109,0.856997 -4.127178,0.556728 C-4.353206,0.556728 -4.579234,0.556728 -4.805263,0.556728 C-5.153298,0.070884 -5.501333,-0.414961 -5.849368,-0.900805 C-5.641026,-0.414961 -5.432684,0.070884 -5.224342,0.556728 C-5.45037,0.556728 -5.676399,0.556728 -5.902427,0.556728 C-5.547636,0.856997 -5.192845,1.157265 -4.838055,1.457533 C-4.629713,1.943378 -4.421371,2.429222 -4.213029,2.915067 C-4.202098,2.614798 -4.191167,2.31453 -4.180236,2.014262 z" />
    <path d="M -2.071759 1.457533 C-2.408863,1.271957 -2.745968,1.086381 -3.083072,0.900805 C-3.094003,1.201074 -3.104934,1.501342 -3.115864,1.80161 C-3.678997,1.987186 -4.24213,2.172762 -4.805263,2.358338 C-4.248885,2.358338 -3.692508,2.358338 -3.136131,2.358338 C-3.147062,2.658607 -3.157992,2.958875 -3.168923,3.259144 C-2.814132,2.958875 -2.459342,2.658607 -2.104551,2.358338 C-1.548174,2.358338 -0.991796,2.358338 -0.435419,2.358338 C-0.772524,2.172762 -1.109628,1.987186 -1.446733,1.80161 C-1.091942,1.501342 -0.737151,1.201074 -0.382361,0.900805 C-0.945493,1.086381 -1.508626,1.271957 -2.071759,1.457533 z" />
    <path d="M -2.071759 -1.457533 C-1.508626,-1.271957 -0.945493,-1.086381 -0.382361,-0.900805 C-0.737151,-1.201074 -1.091942,-1.501342 -1.446733,-1.80161 C-1.109628,-1.987186 -0.772524,-2.172762 -0.435419,-2.358338 C-0.991796,-2.358338 -1.548174,-2.358338 -2.104551,-2.358338 C-2.459342,-2.658607 -2.814132,-2.958875 -3.168923,-3.259144 C-3.157992,-2.958875 -3.147062,-2.658607 -3.136131,-2.358338 C-3.692508,-2.358338 -4.248885,-2.358338 -4.805263,-2.358338 C-4.24213,-2.172762 -3.678997,-1.987186 -3.115864,-1.80161 C-3.104934,-1.501342 -3.094003,-1.201074 -3.083072,-0.900805 C-2.745968,-1.086381 -2.408863,-1.271957 -2.071759,-1.457533 z" />
    <path d="M -3.588002 1.457533 C-3.250898,1.271957 -2.913793,1.086381 -2.576689,0.900805 C-2.565758,1.201074 -2.554828,1.501342 -2.543897,1.80161 C-1.980764,1.987186 -1.417631,2.172762 -0.854499,2.358338 C-1.410876,2.358338 -1.967253,2.358338 -2.52363,2.358338 C-2.5127,2.658607 -2.501769,2.958875 -2.490838,3.259144 C-2.845629,2.958875 -3.20042,2.658607 -3.55521,2.358338 C-4.111588,2.358338 -4.667965,2.358338 -5.224342,2.358338 C-4.887238,2.172762 -4.550133,1.987186 -4.213029,1.80161 C-4.567819,1.501342 -4.92261,1.201074 -5.277401,0.900805 C-4.714268,1.086381 -4.151135,1.271957 -3.588002,1.457533 z" />
    <path d="M -3.588002 -1.457533 C-4.151135,-1.271957 -4.714268,-1.086381 -5.277401,-0.900805 C-4.92261,-1.201074 -4.567819,-1.501342 -4.213029,-1.80161 C-4.550133,-1.987186 -4.887238,-2.172762 -5.224342,-2.358338 C-4.667965,-2.358338 -4.111588,-2.358338 -3.55521,-2.358338 C-3.20042,-2.658607 -2.845629,-2.958875 -2.490838,-3.259144 C-2.501769,-2.958875 -2.5127,-2.658607 -2.52363,-2.358338 C-1.967253,-2.358338 -1.410876,-2.358338 -0.854499,-2.358338 C-1.417631,-2.172762 -1.980764,-1.987186 -2.543897,-1.80161 C-2.554828,-1.501342 -2.565758,-1.201074 -2.576689,-0.900805 C-2.913793,-1.086381 -3.250898,-1.271957 -3.588002,-1.457533 z" />
    <path d="M -1.466999 -2.358338 C-1.123139,-2.358338 -0.779279,-2.358338 -0.435419,-2.358338 C-0.654692,-2.172762 -0.873965,-1.987186 -1.093237,-1.80161 C-0.884895,-1.686918 -0.676553,-1.572226 -0.468211,-1.457533 C-0.816246,-1.342841 -1.164282,-1.228149 -1.512317,-1.113456 C-1.519072,-0.92788 -1.525828,-0.742304 -1.532583,-0.556728 C-1.876443,-0.556728 -2.220303,-0.556728 -2.564163,-0.556728 C-2.783436,-0.371152 -3.002709,-0.185576 -3.221982,0 C-3.430324,-0.114692 -3.638666,-0.229385 -3.847008,-0.344077 C-4.195043,-0.229385 -4.543078,-0.114692 -4.891113,0 C-4.884358,-0.185576 -4.877602,-0.371152 -4.870847,-0.556728 C-5.214707,-0.556728 -5.558567,-0.556728 -5.902427,-0.556728 C-5.683154,-0.742304 -5.463881,-0.92788 -5.244609,-1.113456 C-5.452951,-1.228149 -5.661293,-1.342841 -5.869635,-1.457533 C-5.5216,-1.572226 -5.173564,-1.686918 -4.825529,-1.80161 C-4.818774,-1.987186 -4.812018,-2.172762 -4.805263,-2.358338 C-4.461403,-2.358338 -4.117543,-2.358338 -3.773683,-2.358338 C-3.55441,-2.543915 -3.335137,-2.729491 -3.115864,-2.915067 C-2.907522,-2.800374 -2.69918,-2.685682 -2.490838,-2.57099 C-2.142803,-2.685682 -1.794768,-2.800374 -1.446733,-2.915067 C-1.453488,-2.729491 -1.460244,-2.543915 -1.466999,-2.358338 z" />
    <path d="M -3.773683 2.358338 C-4.117543,2.358338 -4.461403,2.358338 -4.805263,2.358338 C-4.812018,2.172762 -4.818774,1.987186 -4.825529,1.80161 C-5.173564,1.686918 -5.5216,1.572226 -5.869635,1.457533 C-5.661293,1.342841 -5.452951,1.228149 -5.244609,1.113456 C-5.463881,0.92788 -5.683154,0.742304 -5.902427,0.556728 C-5.558567,0.556728 -5.214707,0.556728 -4.870847,0.556728 C-4.877602,0.371152 -4.884358,0.185576 -4.891113,0 C-4.543078,0.114692 -4.195043,0.229385 -3.847008,0.344077 C-3.638666,0.229385 -3.430324,0.114692 -3.221982,0 C-3.002709,0.185576 -2.783436,0.371152 -2.564163,0.556728 C-2.220303,0.556728 -1.876443,0.556728 -1.532583,0.556728 C-1.525828,0.742304 -1.519072,0.92788 -1.512317,1.113456 C-1.164282,1.228149 -0.816246,1.342841 -0.468211,1.457533 C-0.676553,1.572226 -0.884895,1.686918 -1.093237,1.80161 C-0.873965,1.987186 -0.654692,2.172762 -0.435419,2.358338 C-0.779279,2.358338 -1.123139,2.358338 -1.466999,2.358338 C-1.460244,2.543915 -1.453488,2.729491 -1.446733,2.915067 C-1.794768,2.800374 -2.142803,2.685682 -2.490838,2.57099 C-2.69918,2.685682 -2.907522,2.800374 -3.115864,2.915067 C-3.335137,2.729491 -3.55441,2.543915 -3.773683,2.358338 z" />
    <path d="M -1.886079 2.358338 C-1.542219,2.358338 -1.198359,2.358338 -0.854499,2.358338 C-0.847743,2.172762 -0.840987,1.987186 -0.834232,1.80161 C-0.486197,1.686918 -0.138162,1.572226 0.209874,1.457533 C0.001532,1.342841 -0.206811,1.228149 -0.415153,1.113456 C-0.19588,0.92788 0.023393,0.742304 0.242666,0.556728 C-0.101194,0.556728 -0.445054,0.556728 -0.788915,0.556728 C-0.782159,0.371152 -0.775403,0.185576 -0.768648,0 C-1.116683,0.114692 -1.464718,0.229385 -1.812753,0.344077 C-2.021096,0.229385 -2.229438,0.114692 -2.43778,0 C-2.657052,0.185576 -2.876325,0.371152 -3.095598,0.556728 C-3.439458,0.556728 -3.783318,0.556728 -4.127178,0.556728 C-4.133933,0.742304 -4.140689,0.92788 -4.147444,1.113456 C-4.49548,1.228149 -4.843515,1.342841 -5.19155,1.457533 C-4.983208,1.572226 -4.774866,1.686918 -4.566524,1.80161 C-4.785797,1.987186 -5.005069,2.172762 -5.224342,2.358338 C-4.880482,2.358338 -4.536622,2.358338 -4.192762,2.358338 C-4.199517,2.543915 -4.206273,2.729491 -4.213029,2.915067 C-3.864993,2.800374 -3.516958,2.685682 -3.168923,2.57099 C-2.960581,2.685682 -2.752239,2.800374 -2.543897,2.915067 C-2.324624,2.729491 -2.105351,2.543915 -1.886079,2.358338 z" />
    <path d="M -4.192762 -2.358338 C-4.536622,-2.358338 -4.880482,-2.358338 -5.224342,-2.358338 C-5.005069,-2.172762 -4.785797,-1.987186 -4.566524,-1.80161 C-4.774866,-1.686918 -4.983208,-1.572226 -5.19155,-1.457533 C-4.843515,-1.342841 -4.49548,-1.228149 -4.147444,-1.113456 C-4.140689,-0.92788 -4.133933,-0.742304 -4.127178,-0.556728 C-3.783318,-0.556728 -3.439458,-0.556728 -3.095598,-0.556728 C-2.876325,-0.371152 -2.657052,-0.185576 -2.43778,0 C-2.229438,-0.114692 -2.021096,-0.229385 -1.812753,-0.344077 C-1.464718,-0.229385 -1.116683,-0.114692 -0.768648,0 C-0.775403,-0.185576 -0.782159,-0.371152 -0.788915,-0.556728 C-0.445054,-0.556728 -0.101194,-0.556728 0.242666,-0.556728 C0.023393,-0.742304 -0.19588,-0.92788 -0.415153,-1.113456 C-0.206811,-1.228149 0.001532,-1.342841 0.209874,-1.457533 C-0.138162,-1.572226 -0.486197,-1.686918 -0.834232,-1.80161 C-0.840987,-1.987186 -0.847743,-2.172762 -0.854499,-2.358338 C-1.198359,-2.358338 -1.542219,-2.358338 -1.886079,-2.358338 C-2.105351,-2.543915 -2.324624,-2.729491 -2.543897,-2.915067 C-2.752239,-2.800374 -2.960581,-2.685682 -3.168923,-2.57099 C-3.516958,-2.685682 -3.864993,-2.800374 -4.213029,-2.915067 C-4.206273,-2.729491 -4.199517,-2.543915 -4.192762,-2.358338 z" />
    <path d="M -2.458046 1.244882 C-2.458046,1.616034 -2.458046,1.987186 -2.458046,2.358338 C-2.249704,2.243646 -2.041362,2.128954 -1.83302,2.014262 C-1.704258,2.31453 -1.575495,2.614798 -1.446733,2.915067 C-1.31797,2.614798 -1.189208,2.31453 -1.060445,2.014262 C-0.852103,2.128954 -0.643761,2.243646 -0.435419,2.358338 C-0.435419,1.987186 -0.435419,1.616034 -0.435419,1.244882 C-0.227077,1.13019 -0.018735,1.015497 0.189607,0.900805 C0.060845,0.600537 -0.067918,0.300268 -0.19668,0 C-0.067918,-0.300268 0.060845,-0.600537 0.189607,-0.900805 C-0.018735,-1.015497 -0.227077,-1.13019 -0.435419,-1.244882 C-0.435419,-1.616034 -0.435419,-1.987186 -0.435419,-2.358338 C-0.643761,-2.243646 -0.852103,-2.128954 -1.060445,-2.014262 C-1.189208,-2.31453 -1.31797,-2.614798 -1.446733,-2.915067 C-1.575495,-2.614798 -1.704258,-2.31453 -1.83302,-2.014262 C-2.041362,-2.128954 -2.249704,-2.243646 -2.458046,-2.358338 C-2.458046,-1.987186 -2.458046,-1.616034 -2.458046,-1.244882 C-2.666388,-1.13019 -2.87473,-1.015497 -3.083072,-0.900805 C-2.95431,-0.600537 -2.825547,-0.300268 -2.696785,0 C-2.825547,0.300268 -2.95431,0.600537 -3.083072,0.900805 C-2.87473,1.015497 -2.666388,1.13019 -2.458046,1.244882 z" />
    <path d="M -4.233295 -1.244882 C-4.233295,-1.616034 -4.233295,-1.987186 -4.233295,-2.358338 C-3.88526,-2.243646 -3.537225,-2.128954 -3.18919,-2.014262 C-2.974092,-2.31453 -2.758994,-2.614798 -2.543897,-2.915067 C-2.328799,-2.614798 -2.113702,-2.31453 -1.898604,-2.014262 C-1.550569,-2.128954 -1.202534,-2.243646 -0.854499,-2.358338 C-0.854499,-1.987186 -0.854499,-1.616034 -0.854499,-1.244882 C-0.506463,-1.13019 -0.158428,-1.015497 0.189607,-0.900805 C-0.025491,-0.600537 -0.240588,-0.300268 -0.455686,0 C-0.240588,0.300268 -0.025491,0.600537 0.189607,0.900805 C-0.158428,1.015497 -0.506463,1.13019 -0.854499,1.244882 C-0.854499,1.616034 -0.854499,1.987186 -0.854499,2.358338 C-1.202534,2.243646 -1.550569,2.128954 -1.898604,2.014262 C-2.113702,2.31453 -2.328799,2.614798 -2.543897,2.915067 C-2.758994,2.614798 -2.974092,2.31453 -3.18919,2.014262 C-3.537225,2.128954 -3.88526,2.243646 -4.233295,2.358338 C-4.233295,1.987186 -4.233295,1.616034 -4.233295,1.244882 C-4.58133,1.13019 -4.929365,1.015497 -5.277401,0.900805 C-5.062303,0.600537 -4.847206,0.300268 -4.632108,0 C-4.847206,-0.300268 -5.062303,-0.600537 -5.277401,-0.900805 C-4.929365,-1.015497 -4.58133,-1.13019 -4.233295,-1.244882 z" />
    <path d="M -3.201715 1.244882 C-3.201715,1.616034 -3.201715,1.987186 -3.201715,2.358338 C-3.410057,2.243646 -3.618399,2.128954 -3.826741,2.014262 C-3.955504,2.31453 -4.084266,2.614798 -4.213029,2.915067 C-4.341791,2.614798 -4.470553,2.31453 -4.599316,2.014262 C-4.807658,2.128954 -5.016,2.243646 -5.224342,2.358338 C-5.224342,1.987186 -5.224342,1.616034 -5.224342,1.244882 C-5.432684,1.13019 -5.641026,1.015497 -5.849368,0.900805 C-5.720606,0.600537 -5.591843,0.300268 -5.463081,0 C-5.591843,-0.300268 -5.720606,-0.600537 -5.849368,-0.900805 C-5.641026,-1.015497 -5.432684,-1.13019 -5.224342,-1.244882 C-5.224342,-1.616034 -5.224342,-1.987186 -5.224342,-2.358338 C-5.016,-2.243646 -4.807658,-2.128954 -4.599316,-2.014262 C-4.470553,-2.31453 -4.341791,-2.614798 -4.213029,-2.915067 C-4.084266,-2.614798 -3.955504,-2.31453 -3.826741,-2.014262 C-3.618399,-2.128954 -3.410057,-2.243646 -3.201715,-2.358338 C-3.201715,-1.987186 -3.201715,-1.616034 -3.201715,-1.244882 C-2.993373,-1.13019 -2.785031,-1.015497 -2.576689,-0.900805 C-2.705451,-0.600537 -2.834214,-0.300268 -2.962976,0 C-2.834214,0.300268 -2.705451,0.600537 -2.576689,0.900805 C-2.785031,1.015497 -2.993373,1.13019 -3.201715,1.244882 z" />
    <path d="M -1.426466 -1.244882 C-1.426466,-1.616034 -1.426466,-1.987186 -1.426466,-2.358338 C-1.774501,-2.243646 -2.122536,-2.128954 -2.470572,-2.014262 C-2.685669,-2.31453 -2.900767,-2.614798 -3.115864,-2.915067 C-3.330962,-2.614798 -3.54606,-2.31453 -3.761157,-2.014262 C-4.109192,-2.128954 -4.457227,-2.243646 -4.805263,-2.358338 C-4.805263,-1.987186 -4.805263,-1.616034 -4.805263,-1.244882 C-5.153298,-1.13019 -5.501333,-1.015497 -5.849368,-0.900805 C-5.634271,-0.600537 -5.419173,-0.300268 -5.204075,0 C-5.419173,0.300268 -5.634271,0.600537 -5.849368,0.900805 C-5.501333,1.015497 -5.153298,1.13019 -4.805263,1.244882 C-4.805263,1.616034 -4.805263,1.987186 -4.805263,2.358338 C-4.457227,2.243646 -4.109192,2.128954 -3.761157,2.014262 C-3.54606,2.31453 -3.330962,2.614798 -3.115864,2.915067 C-2.900767,2.614798 -2.685669,2.31453 -2.470572,2.014262 C-2.122536,2.128954 -1.774501,2.243646 -1.426466,2.358338 C-1.426466,1.987186 -1.426466,1.616034 -1.426466,1.244882 C-1.078431,1.13019 -0.730396,1.015497 -0.382361,0.900805 C-0.597458,0.600537 -0.812556,0.300268 -1.027653,0 C-0.812556,-0.300268 -0.597458,-0.600537 -0.382361,-0.900805 C-0.730396,-1.015497 -1.078431,-1.13019 -1.426466,-1.244882 z" />
    <path d="M -5.483347 -0.556728 C-5.623041,-0.556728 -5.762734,-0.556728 -5.902427,-0.556728 C-5.687329,-0.25646 -5.472232,0.043809 -5.257134,0.344077 C-5.26389,0.529653 -5.270645,0.715229 -5.277401,0.900805 C-5.058128,1.086381 -4.838855,1.271957 -4.619583,1.457533 C-4.49082,1.757802 -4.362058,2.05807 -4.233295,2.358338 C-4.093602,2.358338 -3.953909,2.358338 -3.814216,2.358338 C-3.599118,2.658607 -3.384021,2.958875 -3.168923,3.259144 C-3.162167,3.073568 -3.155412,2.887991 -3.148656,2.702415 C-2.929384,2.887991 -2.710111,3.073568 -2.490838,3.259144 C-2.619601,2.958875 -2.748363,2.658607 -2.877126,2.358338 C-2.737432,2.358338 -2.597739,2.358338 -2.458046,2.358338 C-2.673144,2.05807 -2.888241,1.757802 -3.103339,1.457533 C-3.096583,1.271957 -3.089828,1.086381 -3.083072,0.900805 C-3.302345,0.715229 -3.521618,0.529653 -3.74089,0.344077 C-3.869653,0.043809 -3.998415,-0.25646 -4.127178,-0.556728 C-4.266871,-0.556728 -4.406564,-0.556728 -4.546257,-0.556728 C-4.761355,-0.856997 -4.976452,-1.157265 -5.19155,-1.457533 C-5.198306,-1.271957 -5.205061,-1.086381 -5.211817,-0.900805 C-5.431089,-1.086381 -5.650362,-1.271957 -5.869635,-1.457533 C-5.740872,-1.157265 -5.61211,-0.856997 -5.483347,-0.556728 z" />
    <path d="M -0.176414 -0.556728 C-0.036721,-0.556728 0.102972,-0.556728 0.242666,-0.556728 C0.027568,-0.25646 -0.18753,0.043809 -0.402627,0.344077 C-0.395872,0.529653 -0.389116,0.715229 -0.382361,0.900805 C-0.601633,1.086381 -0.820906,1.271957 -1.040179,1.457533 C-1.168941,1.757802 -1.297704,2.05807 -1.426466,2.358338 C-1.566159,2.358338 -1.705852,2.358338 -1.845545,2.358338 C-2.060643,2.658607 -2.275741,2.958875 -2.490838,3.259144 C-2.497594,3.073568 -2.504349,2.887991 -2.511105,2.702415 C-2.730378,2.887991 -2.94965,3.073568 -3.168923,3.259144 C-3.040161,2.958875 -2.911398,2.658607 -2.782636,2.358338 C-2.922329,2.358338 -3.062022,2.358338 -3.201715,2.358338 C-2.986617,2.05807 -2.77152,1.757802 -2.556422,1.457533 C-2.563178,1.271957 -2.569933,1.086381 -2.576689,0.900805 C-2.357416,0.715229 -2.138143,0.529653 -1.918871,0.344077 C-1.790108,0.043809 -1.661346,-0.25646 -1.532583,-0.556728 C-1.39289,-0.556728 -1.253197,-0.556728 -1.113504,-0.556728 C-0.898406,-0.856997 -0.683309,-1.157265 -0.468211,-1.457533 C-0.461456,-1.271957 -0.4547,-1.086381 -0.447945,-0.900805 C-0.228672,-1.086381 -0.009399,-1.271957 0.209874,-1.457533 C0.081111,-1.157265 -0.047651,-0.856997 -0.176414,-0.556728 z" />
    <path d="M -1.113504 0.556728 C-1.253197,0.556728 -1.39289,0.556728 -1.532583,0.556728 C-1.661346,0.25646 -1.790108,-0.043809 -1.918871,-0.344077 C-2.138143,-0.529653 -2.357416,-0.715229 -2.576689,-0.900805 C-2.569933,-1.086381 -2.563178,-1.271957 -2.556422,-1.457533 C-2.77152,-1.757802 -2.986617,-2.05807 -3.201715,-2.358338 C-3.062022,-2.358338 -2.922329,-2.358338 -2.782636,-2.358338 C-2.911398,-2.658607 -3.040161,-2.958875 -3.168923,-3.259144 C-2.94965,-3.073568 -2.730378,-2.887991 -2.511105,-2.702415 C-2.504349,-2.887991 -2.497594,-3.073568 -2.490838,-3.259144 C-2.275741,-2.958875 -2.060643,-2.658607 -1.845545,-2.358338 C-1.705852,-2.358338 -1.566159,-2.358338 -1.426466,-2.358338 C-1.297704,-2.05807 -1.168941,-1.757802 -1.040179,-1.457533 C-0.820906,-1.271957 -0.601633,-1.086381 -0.382361,-0.900805 C-0.389116,-0.715229 -0.395872,-0.529653 -0.402627,-0.344077 C-0.18753,-0.043809 0.027568,0.25646 0.242666,0.556728 C0.102972,0.556728 -0.036721,0.556728 -0.176414,0.556728 C-0.047651,0.856997 0.081111,1.157265 0.209874,1.457533 C-0.009399,1.271957 -0.228672,1.086381 -0.447945,0.900805 C-0.4547,1.086381 -0.461456,1.271957 -0.468211,1.457533 C-0.683309,1.157265 -0.898406,0.856997 -1.113504,0.556728 z" />
    <path d="M -4.546257 0.556728 C-4.406564,0.556728 -4.266871,0.556728 -4.127178,0.556728 C-3.998415,0.25646 -3.869653,-0.043809 -3.74089,-0.344077 C-3.521618,-0.529653 -3.302345,-0.715229 -3.083072,-0.900805 C-3.089828,-1.086381 -3.096583,-1.271957 -3.103339,-1.457533 C-2.888241,-1.757802 -2.673144,-2.05807 -2.458046,-2.358338 C-2.597739,-2.358338 -2.737432,-2.358338 -2.877126,-2.358338 C-2.748363,-2.658607 -2.619601,-2.958875 -2.490838,-3.259144 C-2.710111,-3.073568 -2.929384,-2.887991 -3.148656,-2.702415 C-3.155412,-2.887991 -3.162167,-3.073568 -3.168923,-3.259144 C-3.384021,-2.958875 -3.599118,-2.658607 -3.814216,-2.358338 C-3.953909,-2.358338 -4.093602,-2.358338 -4.233295,-2.358338 C-4.362058,-2.05807 -4.49082,-1.757802 -4.619583,-1.457533 C-4.838855,-1.271957 -5.058128,-1.086381 -5.277401,-0.900805 C-5.270645,-0.715229 -5.26389,-0.529653 -5.257134,-0.344077 C-5.472232,-0.043809 -5.687329,0.25646 -5.902427,0.556728 C-5.762734,0.556728 -5.623041,0.556728 -5.483347,0.556728 C-5.61211,0.856997 -5.740872,1.157265 -5.869635,1.457533 C-5.650362,1.271957 -5.431089,1.086381 -5.211817,0.900805 C-5.205061,1.086381 -5.198306,1.271957 -5.19155,1.457533 C-4.976452,1.157265 -4.761355,0.856997 -4.546257,0.556728 z" />
  </g>
</svg>