<?xml version="1.0" encoding="UTF-8" standalone="no"?>
<!DOCTYPE svg PUBLIC "-//W3C//Dtd SVG 1.1//EN" "http://www.w3.org/Graphics/SVG/1.1/Dtd/svg11.dtd">
<svg xmlns="http://www.w3.org/2000/svg" width="5.40074mm" height="5.237173mm" viewBox="-9.06303017925454 -1.02301979446573 5.40074 5.237173" version="1.1" preserveAspectratio="xMidYMid">
  <!--SVG version of Rhinoceros 5.0 file untitled.3dm-->
  <!-- Millimeters in Rhinoceros file-->
  <!-- Millimeters in SVG file-->
  <!--Export Rhino to SVG, version 0.3, 21 of November 2016, Laurent Delrieu email:l[dot]delrieu[at]neuf.fr-->
  <g id="Default" stroke-width="0.25" stroke="rgb(0,0,0)" stroke-opacity="1" stroke-linecap="round" stroke-linejoin="round" fill="none">
    <path d="M -5.546164 1.595567 C-5.818329,1.595567 -6.090495,1.595567 -6.36266,1.595567 C-6.142474,1.435592 -5.922287,1.275617 -5.702101,1.115642 C-5.429935,1.115642 -5.15777,1.115642 -4.885604,1.115642 C-5.105791,1.275617 -5.325977,1.435592 -5.546164,1.595567 z" fill="none" />
    <path d="M -5.702101 1.115642 C-5.922287,1.275617 -6.142474,1.435592 -6.36266,1.595567 C-6.278556,1.336722 -6.194453,1.077877 -6.110349,0.819032 C-5.890162,0.659057 -5.669976,0.499082 -5.449789,0.339107 C-5.533893,0.597952 -5.617997,0.856797 -5.702101,1.115642 z" fill="none" />
    <path d="M -6.110349 0.819032 C-6.194453,1.077877 -6.278556,1.336722 -6.36266,1.595567 C-6.446764,1.336722 -6.530868,1.077877 -6.614972,0.819032 C-6.530868,0.560187 -6.446764,0.301343 -6.36266,0.042498 C-6.278556,0.301343 -6.194453,0.560187 -6.110349,0.819032 z" fill="none" />
    <path d="M -6.614972 0.819032 C-6.530868,1.077877 -6.446764,1.336722 -6.36266,1.595567 C-6.582847,1.435592 -6.803033,1.275617 -7.02322,1.115642 C-7.107324,0.856797 -7.191427,0.597952 -7.275531,0.339107 C-7.055345,0.499082 -6.835158,0.659057 -6.614972,0.819032 z" fill="none" />
    <path d="M -7.02322 1.115642 C-6.803033,1.275617 -6.582847,1.435592 -6.36266,1.595567 C-6.634826,1.595567 -6.906991,1.595567 -7.179157,1.595567 C-7.399343,1.435592 -7.61953,1.275617 -7.839716,1.115642 C-7.567551,1.115642 -7.295385,1.115642 -7.02322,1.115642 z" fill="none" />
    <path d="M -7.179157 1.595567 C-6.906991,1.595567 -6.634826,1.595567 -6.36266,1.595567 C-6.582847,1.755541 -6.803033,1.915516 -7.02322,2.075491 C-7.295385,2.075491 -7.567551,2.075491 -7.839716,2.075491 C-7.61953,1.915516 -7.399343,1.755541 -7.179157,1.595567 z" fill="none" />
    <path d="M -7.02322 2.075491 C-6.803033,1.915516 -6.582847,1.755541 -6.36266,1.595567 C-6.446764,1.854411 -6.530868,2.113256 -6.614972,2.372101 C-6.835158,2.532076 -7.055345,2.692051 -7.275531,2.852026 C-7.191427,2.593181 -7.107324,2.334336 -7.02322,2.075491 z" fill="none" />
    <path d="M -6.614972 2.372101 C-6.530868,2.113256 -6.446764,1.854411 -6.36266,1.595567 C-6.278556,1.854411 -6.194453,2.113256 -6.110349,2.372101 C-6.194453,2.630946 -6.278556,2.88979 -6.36266,3.148635 C-6.446764,2.88979 -6.530868,2.630946 -6.614972,2.372101 z" fill="none" />
    <path d="M -6.110349 2.372101 C-6.194453,2.113256 -6.278556,1.854411 -6.36266,1.595567 C-6.142474,1.755541 -5.922287,1.915516 -5.702101,2.075491 C-5.617997,2.334336 -5.533893,2.593181 -5.449789,2.852026 C-5.669976,2.692051 -5.890162,2.532076 -6.110349,2.372101 z" fill="none" />
    <path d="M -6.36266 1.595567 C-6.090495,1.595567 -5.818329,1.595567 -5.546164,1.595567 C-5.325977,1.755541 -5.105791,1.915516 -4.885604,2.075491 C-5.15777,2.075491 -5.429935,2.075491 -5.702101,2.075491 C-5.922287,1.915516 -6.142474,1.755541 -6.36266,1.595567 z" fill="none" />
    <path d="M -4.885604 1.115642 C-5.15777,1.115642 -5.429935,1.115642 -5.702101,1.115642 C-5.617997,0.856797 -5.533893,0.597952 -5.449789,0.339107 C-5.177624,0.339107 -4.905458,0.339107 -4.633293,0.339107 C-4.717397,0.597952 -4.8015,0.856797 -4.885604,1.115642 z" fill="none" />
    <path d="M -6.110349 0.819032 C-6.194453,0.560187 -6.278556,0.301343 -6.36266,0.042498 C-6.142474,-0.117477 -5.922287,-0.277452 -5.702101,-0.437427 C-5.617997,-0.178582 -5.533893,0.080263 -5.449789,0.339107 C-5.669976,0.499082 -5.890162,0.659057 -6.110349,0.819032 z" fill="none" />
    <path d="M -6.36266 0.042498 C-6.446764,0.301343 -6.530868,0.560187 -6.614972,0.819032 C-6.835158,0.659057 -7.055345,0.499082 -7.275531,0.339107 C-7.191427,0.080263 -7.107324,-0.178582 -7.02322,-0.437427 C-6.803033,-0.277452 -6.582847,-0.117477 -6.36266,0.042498 z" fill="none" />
    <path d="M -7.02322 1.115642 C-7.295385,1.115642 -7.567551,1.115642 -7.839716,1.115642 C-7.92382,0.856797 -8.007924,0.597952 -8.092028,0.339107 C-7.819862,0.339107 -7.547697,0.339107 -7.275531,0.339107 C-7.191427,0.597952 -7.107324,0.856797 -7.02322,1.115642 z" fill="none" />
    <path d="M -7.179157 1.595567 C-7.399343,1.755541 -7.61953,1.915516 -7.839716,2.075491 C-8.059903,1.915516 -8.28009,1.755541 -8.500276,1.595567 C-8.28009,1.435592 -8.059903,1.275617 -7.839716,1.115642 C-7.61953,1.275617 -7.399343,1.435592 -7.179157,1.595567 z" fill="none" />
    <path d="M -7.839716 2.075491 C-7.567551,2.075491 -7.295385,2.075491 -7.02322,2.075491 C-7.107324,2.334336 -7.191427,2.593181 -7.275531,2.852026 C-7.547697,2.852026 -7.819862,2.852026 -8.092028,2.852026 C-8.007924,2.593181 -7.92382,2.334336 -7.839716,2.075491 z" fill="none" />
    <path d="M -7.275531 2.852026 C-7.055345,2.692051 -6.835158,2.532076 -6.614972,2.372101 C-6.530868,2.630946 -6.446764,2.88979 -6.36266,3.148635 C-6.582847,3.30861 -6.803033,3.468585 -7.02322,3.62856 C-7.107324,3.369715 -7.191427,3.11087 -7.275531,2.852026 z" fill="none" />
    <path d="M -6.36266 3.148635 C-6.278556,2.88979 -6.194453,2.630946 -6.110349,2.372101 C-5.890162,2.532076 -5.669976,2.692051 -5.449789,2.852026 C-5.533893,3.11087 -5.617997,3.369715 -5.702101,3.62856 C-5.922287,3.468585 -6.142474,3.30861 -6.36266,3.148635 z" fill="none" />
    <path d="M -5.449789 2.852026 C-5.533893,2.593181 -5.617997,2.334336 -5.702101,2.075491 C-5.429935,2.075491 -5.15777,2.075491 -4.885604,2.075491 C-4.8015,2.334336 -4.717397,2.593181 -4.633293,2.852026 C-4.905458,2.852026 -5.177624,2.852026 -5.449789,2.852026 z" fill="none" />
    <path d="M -5.546164 1.595567 C-5.325977,1.435592 -5.105791,1.275617 -4.885604,1.115642 C-4.665418,1.275617 -4.445231,1.435592 -4.225044,1.595567 C-4.445231,1.755541 -4.665418,1.915516 -4.885604,2.075491 C-5.105791,1.915516 -5.325977,1.755541 -5.546164,1.595567 z" fill="none" />
    <path d="M -4.633293 0.339107 C-4.905458,0.339107 -5.177624,0.339107 -5.449789,0.339107 C-5.533893,0.080263 -5.617997,-0.178582 -5.702101,-0.437427 C-5.429935,-0.437427 -5.15777,-0.437427 -4.885604,-0.437427 C-4.8015,-0.178582 -4.717397,0.080263 -4.633293,0.339107 z" fill="none" />
    <path d="M -5.702101 -0.437427 C-5.922287,-0.277452 -6.142474,-0.117477 -6.36266,0.042498 C-6.582847,-0.117477 -6.803033,-0.277452 -7.02322,-0.437427 C-6.803033,-0.597402 -6.582847,-0.757377 -6.36266,-0.917352 C-6.142474,-0.757377 -5.922287,-0.597402 -5.702101,-0.437427 z" fill="none" />
    <path d="M -7.02322 -0.437427 C-7.107324,-0.178582 -7.191427,0.080263 -7.275531,0.339107 C-7.547697,0.339107 -7.819862,0.339107 -8.092028,0.339107 C-8.007924,0.080263 -7.92382,-0.178582 -7.839716,-0.437427 C-7.567551,-0.437427 -7.295385,-0.437427 -7.02322,-0.437427 z" fill="none" />
    <path d="M -8.092028 0.339107 C-8.007924,0.597952 -7.92382,0.856797 -7.839716,1.115642 C-8.059903,1.275617 -8.28009,1.435592 -8.500276,1.595567 C-8.58438,1.336722 -8.668484,1.077877 -8.752587,0.819032 C-8.532401,0.659057 -8.312214,0.499082 -8.092028,0.339107 z" fill="none" />
    <path d="M -8.500276 1.595567 C-8.28009,1.755541 -8.059903,1.915516 -7.839716,2.075491 C-7.92382,2.334336 -8.007924,2.593181 -8.092028,2.852026 C-8.312214,2.692051 -8.532401,2.532076 -8.752587,2.372101 C-8.668484,2.113256 -8.58438,1.854411 -8.500276,1.595567 z" fill="none" />
    <path d="M -8.092028 2.852026 C-7.819862,2.852026 -7.547697,2.852026 -7.275531,2.852026 C-7.191427,3.11087 -7.107324,3.369715 -7.02322,3.62856 C-7.295385,3.62856 -7.567551,3.62856 -7.839716,3.62856 C-7.92382,3.369715 -8.007924,3.11087 -8.092028,2.852026 z" fill="none" />
    <path d="M -7.02322 3.62856 C-6.803033,3.468585 -6.582847,3.30861 -6.36266,3.148635 C-6.142474,3.30861 -5.922287,3.468585 -5.702101,3.62856 C-5.922287,3.788535 -6.142474,3.94851 -6.36266,4.108485 C-6.582847,3.94851 -6.803033,3.788535 -7.02322,3.62856 z" fill="none" />
    <path d="M -5.702101 3.62856 C-5.617997,3.369715 -5.533893,3.11087 -5.449789,2.852026 C-5.177624,2.852026 -4.905458,2.852026 -4.633293,2.852026 C-4.717397,3.11087 -4.8015,3.369715 -4.885604,3.62856 C-5.15777,3.62856 -5.429935,3.62856 -5.702101,3.62856 z" fill="none" />
    <path d="M -4.633293 2.852026 C-4.717397,2.593181 -4.8015,2.334336 -4.885604,2.075491 C-4.665418,1.915516 -4.445231,1.755541 -4.225044,1.595567 C-4.140941,1.854411 -4.056837,2.113256 -3.972733,2.372101 C-4.19292,2.532076 -4.413106,2.692051 -4.633293,2.852026 z" fill="none" />
    <path d="M -4.225044 1.595567 C-4.445231,1.435592 -4.665418,1.275617 -4.885604,1.115642 C-4.8015,0.856797 -4.717397,0.597952 -4.633293,0.339107 C-4.413106,0.499082 -4.19292,0.659057 -3.972733,0.819032 C-4.056837,1.077877 -4.140941,1.336722 -4.225044,1.595567 z" fill="none" />
    <path d="M -4.885604 -0.437427 C-5.15777,-0.437427 -5.429935,-0.437427 -5.702101,-0.437427 C-5.922287,-0.597402 -6.142474,-0.757377 -6.36266,-0.917352 C-6.090495,-0.917352 -5.818329,-0.917352 -5.546164,-0.917352 C-5.325977,-0.757377 -5.105791,-0.597402 -4.885604,-0.437427 z" fill="none" />
    <path d="M -6.36266 -0.917352 C-6.582847,-0.757377 -6.803033,-0.597402 -7.02322,-0.437427 C-7.295385,-0.437427 -7.567551,-0.437427 -7.839716,-0.437427 C-7.61953,-0.597402 -7.399343,-0.757377 -7.179157,-0.917352 C-6.906991,-0.917352 -6.634826,-0.917352 -6.36266,-0.917352 z" fill="none" />
    <path d="M -7.839716 -0.437427 C-7.92382,-0.178582 -8.007924,0.080263 -8.092028,0.339107 C-8.312214,0.499082 -8.532401,0.659057 -8.752587,0.819032 C-8.668484,0.560187 -8.58438,0.301343 -8.500276,0.042498 C-8.28009,-0.117477 -8.059903,-0.277452 -7.839716,-0.437427 z" fill="none" />
    <path d="M -8.752587 0.819032 C-8.668484,1.077877 -8.58438,1.336722 -8.500276,1.595567 C-8.58438,1.854411 -8.668484,2.113256 -8.752587,2.372101 C-8.836691,2.113256 -8.920795,1.854411 -9.004899,1.595567 C-8.920795,1.336722 -8.836691,1.077877 -8.752587,0.819032 z" fill="none" />
    <path d="M -8.752587 2.372101 C-8.532401,2.532076 -8.312214,2.692051 -8.092028,2.852026 C-8.007924,3.11087 -7.92382,3.369715 -7.839716,3.62856 C-8.059903,3.468585 -8.28009,3.30861 -8.500276,3.148635 C-8.58438,2.88979 -8.668484,2.630946 -8.752587,2.372101 z" fill="none" />
    <path d="M -7.839716 3.62856 C-7.567551,3.62856 -7.295385,3.62856 -7.02322,3.62856 C-6.803033,3.788535 -6.582847,3.94851 -6.36266,4.108485 C-6.634826,4.108485 -6.906991,4.108485 -7.179157,4.108485 C-7.399343,3.94851 -7.61953,3.788535 -7.839716,3.62856 z" fill="none" />
    <path d="M -6.36266 4.108485 C-6.142474,3.94851 -5.922287,3.788535 -5.702101,3.62856 C-5.429935,3.62856 -5.15777,3.62856 -4.885604,3.62856 C-5.105791,3.788535 -5.325977,3.94851 -5.546164,4.108485 C-5.818329,4.108485 -6.090495,4.108485 -6.36266,4.108485 z" fill="none" />
    <path d="M -4.885604 3.62856 C-4.8015,3.369715 -4.717397,3.11087 -4.633293,2.852026 C-4.413106,2.692051 -4.19292,2.532076 -3.972733,2.372101 C-4.056837,2.630946 -4.140941,2.88979 -4.225044,3.148635 C-4.445231,3.30861 -4.665418,3.468585 -4.885604,3.62856 z" fill="none" />
    <path d="M -3.972733 2.372101 C-4.056837,2.113256 -4.140941,1.854411 -4.225044,1.595567 C-4.140941,1.336722 -4.056837,1.077877 -3.972733,0.819032 C-3.888629,1.077877 -3.804526,1.336722 -3.720422,1.595567 C-3.804526,1.854411 -3.888629,2.113256 -3.972733,2.372101 z" fill="none" />
    <path d="M -4.633293 0.339107 C-4.717397,0.080263 -4.8015,-0.178582 -4.885604,-0.437427 C-4.665418,-0.277452 -4.445231,-0.117477 -4.225044,0.042498 C-4.140941,0.301343 -4.056837,0.560187 -3.972733,0.819032 C-4.19292,0.659057 -4.413106,0.499082 -4.633293,0.339107 z" fill="none" />
    <path d="M -6.36266 -0.917352 C-6.634826,-0.917352 -6.906991,-0.917352 -7.179157,-0.917352 C-6.906991,-0.917352 -6.634826,-0.917352 -6.36266,-0.917352 C-6.090495,-0.917352 -5.818329,-0.917352 -5.546164,-0.917352 C-5.818329,-0.917352 -6.090495,-0.917352 -6.36266,-0.917352 z" fill="none" />
    <path d="M -7.839716 -0.437427 C-8.059903,-0.277452 -8.28009,-0.117477 -8.500276,0.042498 C-8.28009,-0.117477 -8.059903,-0.277452 -7.839716,-0.437427 C-7.61953,-0.597402 -7.399343,-0.757377 -7.179157,-0.917352 C-7.399343,-0.757377 -7.61953,-0.597402 -7.839716,-0.437427 z" fill="none" />
    <path d="M -8.752587 0.819032 C-8.836691,1.077877 -8.920795,1.336722 -9.004899,1.595567 C-8.920795,1.336722 -8.836691,1.077877 -8.752587,0.819032 C-8.668484,0.560187 -8.58438,0.301343 -8.500276,0.042498 C-8.58438,0.301343 -8.668484,0.560187 -8.752587,0.819032 z" fill="none" />
    <path d="M -8.752587 2.372101 C-8.668484,2.630946 -8.58438,2.88979 -8.500276,3.148635 C-8.58438,2.88979 -8.668484,2.630946 -8.752587,2.372101 C-8.836691,2.113256 -8.920795,1.854411 -9.004899,1.595567 C-8.920795,1.854411 -8.836691,2.113256 -8.752587,2.372101 z" fill="none" />
    <path d="M -7.839716 3.62856 C-7.61953,3.788535 -7.399343,3.94851 -7.179157,4.108485 C-7.399343,3.94851 -7.61953,3.788535 -7.839716,3.62856 C-8.059903,3.468585 -8.28009,3.30861 -8.500276,3.148635 C-8.28009,3.30861 -8.059903,3.468585 -7.839716,3.62856 z" fill="none" />
    <path d="M -6.36266 4.108485 C-6.090495,4.108485 -5.818329,4.108485 -5.546164,4.108485 C-5.818329,4.108485 -6.090495,4.108485 -6.36266,4.108485 C-6.634826,4.108485 -6.906991,4.108485 -7.179157,4.108485 C-6.906991,4.108485 -6.634826,4.108485 -6.36266,4.108485 z" fill="none" />
    <path d="M -4.885604 3.62856 C-4.665418,3.468585 -4.445231,3.30861 -4.225044,3.148635 C-4.445231,3.30861 -4.665418,3.468585 -4.885604,3.62856 C-5.105791,3.788535 -5.325977,3.94851 -5.546164,4.108485 C-5.325977,3.94851 -5.105791,3.788535 -4.885604,3.62856 z" fill="none" />
    <path d="M -3.972733 2.372101 C-3.888629,2.113256 -3.804526,1.854411 -3.720422,1.595567 C-3.804526,1.854411 -3.888629,2.113256 -3.972733,2.372101 C-4.056837,2.630946 -4.140941,2.88979 -4.225044,3.148635 C-4.140941,2.88979 -4.056837,2.630946 -3.972733,2.372101 z" fill="none" />
    <path d="M -3.972733 0.819032 C-4.056837,0.560187 -4.140941,0.301343 -4.225044,0.042498 C-4.140941,0.301343 -4.056837,0.560187 -3.972733,0.819032 C-3.888629,1.077877 -3.804526,1.336722 -3.720422,1.595567 C-3.804526,1.336722 -3.888629,1.077877 -3.972733,0.819032 z" fill="none" />
    <path d="M -4.885604 -0.437427 C-5.105791,-0.597402 -5.325977,-0.757377 -5.546164,-0.917352 C-5.325977,-0.757377 -5.105791,-0.597402 -4.885604,-0.437427 C-4.665418,-0.277452 -4.445231,-0.117477 -4.225044,0.042498 C-4.445231,-0.117477 -4.665418,-0.277452 -4.885604,-0.437427 z" fill="none" />
    <path d="M -6.36266 -0.917352 C-6.634826,-0.917352 -6.906991,-0.917352 -7.179157,-0.917352 C-7.399343,-0.757377 -7.61953,-0.597402 -7.839716,-0.437427 C-7.567551,-0.437427 -7.295385,-0.437427 -7.02322,-0.437427 C-6.803033,-0.597402 -6.582847,-0.757377 -6.36266,-0.917352 z" fill="none" />
    <path d="M -7.839716 -0.437427 C-8.059903,-0.277452 -8.28009,-0.117477 -8.500276,0.042498 C-8.58438,0.301343 -8.668484,0.560187 -8.752587,0.819032 C-8.532401,0.659057 -8.312214,0.499082 -8.092028,0.339107 C-8.007924,0.080263 -7.92382,-0.178582 -7.839716,-0.437427 z" fill="none" />
    <path d="M -8.752587 0.819032 C-8.836691,1.077877 -8.920795,1.336722 -9.004899,1.595567 C-8.920795,1.854411 -8.836691,2.113256 -8.752587,2.372101 C-8.668484,2.113256 -8.58438,1.854411 -8.500276,1.595567 C-8.58438,1.336722 -8.668484,1.077877 -8.752587,0.819032 z" fill="none" />
    <path d="M -8.752587 2.372101 C-8.668484,2.630946 -8.58438,2.88979 -8.500276,3.148635 C-8.28009,3.30861 -8.059903,3.468585 -7.839716,3.62856 C-7.92382,3.369715 -8.007924,3.11087 -8.092028,2.852026 C-8.312214,2.692051 -8.532401,2.532076 -8.752587,2.372101 z" fill="none" />
    <path d="M -7.839716 3.62856 C-7.61953,3.788535 -7.399343,3.94851 -7.179157,4.108485 C-6.906991,4.108485 -6.634826,4.108485 -6.36266,4.108485 C-6.582847,3.94851 -6.803033,3.788535 -7.02322,3.62856 C-7.295385,3.62856 -7.567551,3.62856 -7.839716,3.62856 z" fill="none" />
    <path d="M -6.36266 4.108485 C-6.090495,4.108485 -5.818329,4.108485 -5.546164,4.108485 C-5.325977,3.94851 -5.105791,3.788535 -4.885604,3.62856 C-5.15777,3.62856 -5.429935,3.62856 -5.702101,3.62856 C-5.922287,3.788535 -6.142474,3.94851 -6.36266,4.108485 z" fill="none" />
    <path d="M -4.885604 3.62856 C-4.665418,3.468585 -4.445231,3.30861 -4.225044,3.148635 C-4.140941,2.88979 -4.056837,2.630946 -3.972733,2.372101 C-4.19292,2.532076 -4.413106,2.692051 -4.633293,2.852026 C-4.717397,3.11087 -4.8015,3.369715 -4.885604,3.62856 z" fill="none" />
    <path d="M -3.972733 2.372101 C-3.888629,2.113256 -3.804526,1.854411 -3.720422,1.595567 C-3.804526,1.336722 -3.888629,1.077877 -3.972733,0.819032 C-4.056837,1.077877 -4.140941,1.336722 -4.225044,1.595567 C-4.140941,1.854411 -4.056837,2.113256 -3.972733,2.372101 z" fill="none" />
    <path d="M -3.972733 0.819032 C-4.056837,0.560187 -4.140941,0.301343 -4.225044,0.042498 C-4.445231,-0.117477 -4.665418,-0.277452 -4.885604,-0.437427 C-4.8015,-0.178582 -4.717397,0.080263 -4.633293,0.339107 C-4.413106,0.499082 -4.19292,0.659057 -3.972733,0.819032 z" fill="none" />
    <path d="M -4.885604 -0.437427 C-5.105791,-0.597402 -5.325977,-0.757377 -5.546164,-0.917352 C-5.818329,-0.917352 -6.090495,-0.917352 -6.36266,-0.917352 C-6.142474,-0.757377 -5.922287,-0.597402 -5.702101,-0.437427 C-5.429935,-0.437427 -5.15777,-0.437427 -4.885604,-0.437427 z" fill="none" />
    <path d="M -7.02322 -0.437427 C-7.295385,-0.437427 -7.567551,-0.437427 -7.839716,-0.437427 C-7.92382,-0.178582 -8.007924,0.080263 -8.092028,0.339107 C-7.819862,0.339107 -7.547697,0.339107 -7.275531,0.339107 C-7.191427,0.080263 -7.107324,-0.178582 -7.02322,-0.437427 z" fill="none" />
    <path d="M -8.752587 0.819032 C-8.668484,1.077877 -8.58438,1.336722 -8.500276,1.595567 C-8.28009,1.435592 -8.059903,1.275617 -7.839716,1.115642 C-7.92382,0.856797 -8.007924,0.597952 -8.092028,0.339107 C-8.312214,0.499082 -8.532401,0.659057 -8.752587,0.819032 z" fill="none" />
    <path d="M -8.500276 1.595567 C-8.58438,1.854411 -8.668484,2.113256 -8.752587,2.372101 C-8.532401,2.532076 -8.312214,2.692051 -8.092028,2.852026 C-8.007924,2.593181 -7.92382,2.334336 -7.839716,2.075491 C-8.059903,1.915516 -8.28009,1.755541 -8.500276,1.595567 z" fill="none" />
    <path d="M -8.092028 2.852026 C-8.007924,3.11087 -7.92382,3.369715 -7.839716,3.62856 C-7.567551,3.62856 -7.295385,3.62856 -7.02322,3.62856 C-7.107324,3.369715 -7.191427,3.11087 -7.275531,2.852026 C-7.547697,2.852026 -7.819862,2.852026 -8.092028,2.852026 z" fill="none" />
    <path d="M -7.02322 3.62856 C-6.803033,3.788535 -6.582847,3.94851 -6.36266,4.108485 C-6.142474,3.94851 -5.922287,3.788535 -5.702101,3.62856 C-5.922287,3.468585 -6.142474,3.30861 -6.36266,3.148635 C-6.582847,3.30861 -6.803033,3.468585 -7.02322,3.62856 z" fill="none" />
    <path d="M -5.702101 3.62856 C-5.429935,3.62856 -5.15777,3.62856 -4.885604,3.62856 C-4.8015,3.369715 -4.717397,3.11087 -4.633293,2.852026 C-4.905458,2.852026 -5.177624,2.852026 -5.449789,2.852026 C-5.533893,3.11087 -5.617997,3.369715 -5.702101,3.62856 z" fill="none" />
    <path d="M -3.972733 2.372101 C-4.056837,2.113256 -4.140941,1.854411 -4.225044,1.595567 C-4.445231,1.755541 -4.665418,1.915516 -4.885604,2.075491 C-4.8015,2.334336 -4.717397,2.593181 -4.633293,2.852026 C-4.413106,2.692051 -4.19292,2.532076 -3.972733,2.372101 z" fill="none" />
    <path d="M -4.225044 1.595567 C-4.140941,1.336722 -4.056837,1.077877 -3.972733,0.819032 C-4.19292,0.659057 -4.413106,0.499082 -4.633293,0.339107 C-4.717397,0.597952 -4.8015,0.856797 -4.885604,1.115642 C-4.665418,1.275617 -4.445231,1.435592 -4.225044,1.595567 z" fill="none" />
    <path d="M -4.633293 0.339107 C-4.717397,0.080263 -4.8015,-0.178582 -4.885604,-0.437427 C-5.15777,-0.437427 -5.429935,-0.437427 -5.702101,-0.437427 C-5.617997,-0.178582 -5.533893,0.080263 -5.449789,0.339107 C-5.177624,0.339107 -4.905458,0.339107 -4.633293,0.339107 z" fill="none" />
    <path d="M -6.36266 -0.917352 C-6.582847,-0.757377 -6.803033,-0.597402 -7.02322,-0.437427 C-6.803033,-0.277452 -6.582847,-0.117477 -6.36266,0.042498 C-6.142474,-0.117477 -5.922287,-0.277452 -5.702101,-0.437427 C-5.922287,-0.597402 -6.142474,-0.757377 -6.36266,-0.917352 z" fill="none" />
    <path d="M -8.092028 0.339107 C-8.007924,0.597952 -7.92382,0.856797 -7.839716,1.115642 C-7.567551,1.115642 -7.295385,1.115642 -7.02322,1.115642 C-7.107324,0.856797 -7.191427,0.597952 -7.275531,0.339107 C-7.547697,0.339107 -7.819862,0.339107 -8.092028,0.339107 z" fill="none" />
    <path d="M -7.839716 1.115642 C-8.059903,1.275617 -8.28009,1.435592 -8.500276,1.595567 C-8.28009,1.755541 -8.059903,1.915516 -7.839716,2.075491 C-7.61953,1.915516 -7.399343,1.755541 -7.179157,1.595567 C-7.399343,1.435592 -7.61953,1.275617 -7.839716,1.115642 z" fill="none" />
    <path d="M -8.092028 2.852026 C-7.819862,2.852026 -7.547697,2.852026 -7.275531,2.852026 C-7.191427,2.593181 -7.107324,2.334336 -7.02322,2.075491 C-7.295385,2.075491 -7.567551,2.075491 -7.839716,2.075491 C-7.92382,2.334336 -8.007924,2.593181 -8.092028,2.852026 z" fill="none" />
    <path d="M -7.02322 3.62856 C-6.803033,3.468585 -6.582847,3.30861 -6.36266,3.148635 C-6.446764,2.88979 -6.530868,2.630946 -6.614972,2.372101 C-6.835158,2.532076 -7.055345,2.692051 -7.275531,2.852026 C-7.191427,3.11087 -7.107324,3.369715 -7.02322,3.62856 z" fill="none" />
    <path d="M -5.702101 3.62856 C-5.617997,3.369715 -5.533893,3.11087 -5.449789,2.852026 C-5.669976,2.692051 -5.890162,2.532076 -6.110349,2.372101 C-6.194453,2.630946 -6.278556,2.88979 -6.36266,3.148635 C-6.142474,3.30861 -5.922287,3.468585 -5.702101,3.62856 z" fill="none" />
    <path d="M -4.633293 2.852026 C-4.717397,2.593181 -4.8015,2.334336 -4.885604,2.075491 C-5.15777,2.075491 -5.429935,2.075491 -5.702101,2.075491 C-5.617997,2.334336 -5.533893,2.593181 -5.449789,2.852026 C-5.177624,2.852026 -4.905458,2.852026 -4.633293,2.852026 z" fill="none" />
    <path d="M -4.885604 2.075491 C-4.665418,1.915516 -4.445231,1.755541 -4.225044,1.595567 C-4.445231,1.435592 -4.665418,1.275617 -4.885604,1.115642 C-5.105791,1.275617 -5.325977,1.435592 -5.546164,1.595567 C-5.325977,1.755541 -5.105791,1.915516 -4.885604,2.075491 z" fill="none" />
    <path d="M -4.633293 0.339107 C-4.905458,0.339107 -5.177624,0.339107 -5.449789,0.339107 C-5.533893,0.597952 -5.617997,0.856797 -5.702101,1.115642 C-5.429935,1.115642 -5.15777,1.115642 -4.885604,1.115642 C-4.8015,0.856797 -4.717397,0.597952 -4.633293,0.339107 z" fill="none" />
    <path d="M -5.702101 -0.437427 C-5.922287,-0.277452 -6.142474,-0.117477 -6.36266,0.042498 C-6.278556,0.301343 -6.194453,0.560187 -6.110349,0.819032 C-5.890162,0.659057 -5.669976,0.499082 -5.449789,0.339107 C-5.533893,0.080263 -5.617997,-0.178582 -5.702101,-0.437427 z" fill="none" />
    <path d="M -7.02322 -0.437427 C-7.107324,-0.178582 -7.191427,0.080263 -7.275531,0.339107 C-7.055345,0.499082 -6.835158,0.659057 -6.614972,0.819032 C-6.530868,0.560187 -6.446764,0.301343 -6.36266,0.042498 C-6.582847,-0.117477 -6.803033,-0.277452 -7.02322,-0.437427 z" fill="none" />
    <path d="M -7.02322 1.115642 C-7.295385,1.115642 -7.567551,1.115642 -7.839716,1.115642 C-7.61953,1.275617 -7.399343,1.435592 -7.179157,1.595567 C-6.906991,1.595567 -6.634826,1.595567 -6.36266,1.595567 C-6.582847,1.435592 -6.803033,1.275617 -7.02322,1.115642 z" fill="none" />
    <path d="M -7.179157 1.595567 C-7.399343,1.755541 -7.61953,1.915516 -7.839716,2.075491 C-7.567551,2.075491 -7.295385,2.075491 -7.02322,2.075491 C-6.803033,1.915516 -6.582847,1.755541 -6.36266,1.595567 C-6.634826,1.595567 -6.906991,1.595567 -7.179157,1.595567 z" fill="none" />
    <path d="M -7.02322 2.075491 C-7.107324,2.334336 -7.191427,2.593181 -7.275531,2.852026 C-7.055345,2.692051 -6.835158,2.532076 -6.614972,2.372101 C-6.530868,2.113256 -6.446764,1.854411 -6.36266,1.595567 C-6.582847,1.755541 -6.803033,1.915516 -7.02322,2.075491 z" fill="none" />
    <path d="M -6.614972 2.372101 C-6.530868,2.630946 -6.446764,2.88979 -6.36266,3.148635 C-6.278556,2.88979 -6.194453,2.630946 -6.110349,2.372101 C-6.194453,2.113256 -6.278556,1.854411 -6.36266,1.595567 C-6.446764,1.854411 -6.530868,2.113256 -6.614972,2.372101 z" fill="none" />
    <path d="M -6.110349 2.372101 C-5.890162,2.532076 -5.669976,2.692051 -5.449789,2.852026 C-5.533893,2.593181 -5.617997,2.334336 -5.702101,2.075491 C-5.922287,1.915516 -6.142474,1.755541 -6.36266,1.595567 C-6.278556,1.854411 -6.194453,2.113256 -6.110349,2.372101 z" fill="none" />
    <path d="M -5.702101 2.075491 C-5.429935,2.075491 -5.15777,2.075491 -4.885604,2.075491 C-5.105791,1.915516 -5.325977,1.755541 -5.546164,1.595567 C-5.818329,1.595567 -6.090495,1.595567 -6.36266,1.595567 C-6.142474,1.755541 -5.922287,1.915516 -5.702101,2.075491 z" fill="none" />
    <path d="M -5.546164 1.595567 C-5.325977,1.435592 -5.105791,1.275617 -4.885604,1.115642 C-5.15777,1.115642 -5.429935,1.115642 -5.702101,1.115642 C-5.922287,1.275617 -6.142474,1.435592 -6.36266,1.595567 C-6.090495,1.595567 -5.818329,1.595567 -5.546164,1.595567 z" fill="none" />
    <path d="M -5.702101 1.115642 C-5.617997,0.856797 -5.533893,0.597952 -5.449789,0.339107 C-5.669976,0.499082 -5.890162,0.659057 -6.110349,0.819032 C-6.194453,1.077877 -6.278556,1.336722 -6.36266,1.595567 C-6.142474,1.435592 -5.922287,1.275617 -5.702101,1.115642 z" fill="none" />
    <path d="M -6.110349 0.819032 C-6.194453,0.560187 -6.278556,0.301343 -6.36266,0.042498 C-6.446764,0.301343 -6.530868,0.560187 -6.614972,0.819032 C-6.530868,1.077877 -6.446764,1.336722 -6.36266,1.595567 C-6.278556,1.336722 -6.194453,1.077877 -6.110349,0.819032 z" fill="none" />
    <path d="M -6.614972 0.819032 C-6.835158,0.659057 -7.055345,0.499082 -7.275531,0.339107 C-7.191427,0.597952 -7.107324,0.856797 -7.02322,1.115642 C-6.803033,1.275617 -6.582847,1.435592 -6.36266,1.595567 C-6.446764,1.336722 -6.530868,1.077877 -6.614972,0.819032 z" fill="none" />
  </g>
</svg>