<?xml version="1.0" encoding="UTF-8" standalone="no"?>
<!DOCTYPE svg PUBLIC "-//W3C//Dtd SVG 1.1//EN" "http://www.w3.org/Graphics/SVG/1.1/Dtd/svg11.dtd">
<svg xmlns="http://www.w3.org/2000/svg" width="23.477024mm" height="23.852879mm" viewBox="-7.18659156121577 -5.09855892195615 23.477024 23.852879" version="1.1" preserveAspectratio="xMidYMid">
  <!--SVG version of Rhinoceros 5.0 file untitled.3dm-->
  <!-- Millimeters in Rhinoceros file-->
  <!-- Millimeters in SVG file-->
  <!--Export Rhino to SVG, version 0.3, 21 of November 2016, Laurent Delrieu email:l[dot]delrieu[at]neuf.fr-->
  <g id="Default" stroke-width="0.25" stroke="rgb(0,0,0)" stroke-opacity="1" stroke-linecap="round" stroke-linejoin="round" fill="none">
    <path d="M 10.312682 9.199959 C8.392428,8.409266 6.472174,7.618573 4.55192,6.82788 C4.038265,8.07533 3.524609,9.322779 3.010954,10.570228 C3.891804,11.555979 4.772655,12.54173 5.653506,13.527481 C7.206565,12.084973 8.759624,10.642466 10.312682,9.199959 z" fill="none" />
    <path d="M 10.312682 9.199959 C8.759624,10.642466 7.206565,12.084973 5.653506,13.527481 C6.473613,14.143808 7.293721,14.760135 8.113829,15.376462 C9.353881,14.813181 10.593932,14.249901 11.833983,13.686621 C11.326883,12.191067 10.819783,10.695513 10.312682,9.199959 z" fill="none" />
    <path d="M 10.312682 9.199959 C10.819783,10.695513 11.326883,12.191067 11.833983,13.686621 C12.672493,12.745142 13.511003,11.803662 14.349512,10.862183 C14.417056,9.603247 14.4846,8.344311 14.552144,7.085375 C13.13899,7.790237 11.725836,8.495098 10.312682,9.199959 z" fill="none" />
    <path d="M 10.312682 9.199959 C11.725836,8.495098 13.13899,7.790237 14.552144,7.085375 C14.068263,5.812241 13.584382,4.539106 13.100501,3.265972 C12.084195,3.126128 11.067888,2.986284 10.051581,2.84644 C10.138615,4.96428 10.225649,7.082119 10.312682,9.199959 z" fill="none" />
    <path d="M 4.55192 6.82788 C6.472174,7.618573 8.392428,8.409266 10.312682,9.199959 C10.225649,7.082119 10.138615,4.96428 10.051581,2.84644 C8.732016,2.926138 7.412452,3.005836 6.092887,3.085533 C5.579231,4.332982 5.065576,5.580431 4.55192,6.82788 z" fill="none" />
    <path d="M 10.312682 9.199959 C8.392428,8.409266 6.472174,7.618573 4.55192,6.82788 C5.065576,5.580431 5.579231,4.332982 6.092887,3.085533 C7.412452,3.005836 8.732016,2.926138 10.051581,2.84644 C10.138615,4.96428 10.225649,7.082119 10.312682,9.199959 z" fill="none" />
    <path d="M 10.312682 9.199959 C10.225649,7.082119 10.138615,4.96428 10.051581,2.84644 C11.067888,2.986284 12.084195,3.126128 13.100501,3.265972 C13.584382,4.539106 14.068263,5.812241 14.552144,7.085375 C13.13899,7.790237 11.725836,8.495098 10.312682,9.199959 z" fill="none" />
    <path d="M 10.312682 9.199959 C11.725836,8.495098 13.13899,7.790237 14.552144,7.085375 C14.4846,8.344311 14.417056,9.603247 14.349512,10.862183 C13.511003,11.803662 12.672493,12.745142 11.833983,13.686621 C11.326883,12.191067 10.819783,10.695513 10.312682,9.199959 z" fill="none" />
    <path d="M 10.312682 9.199959 C10.819783,10.695513 11.326883,12.191067 11.833983,13.686621 C10.593932,14.249901 9.353881,14.813181 8.113829,15.376462 C7.293721,14.760135 6.473613,14.143808 5.653506,13.527481 C7.206565,12.084973 8.759624,10.642466 10.312682,9.199959 z" fill="none" />
    <path d="M 4.55192 6.82788 C6.472174,7.618573 8.392428,8.409266 10.312682,9.199959 C8.759624,10.642466 7.206565,12.084973 5.653506,13.527481 C4.772655,12.54173 3.891804,11.555979 3.010954,10.570228 C3.524609,9.322779 4.038265,8.07533 4.55192,6.82788 z" fill="none" />
    <path d="M 4.55192 6.82788 C5.065576,5.580431 5.579231,4.332982 6.092887,3.085533 C5.212036,2.099782 4.331186,1.114031 3.450335,0.12828 C1.897276,1.570787 0.344217,3.013295 -1.208842,4.455802 C0.711412,5.246495 2.631666,6.037188 4.55192,6.82788 z" fill="none" />
    <path d="M -1.208842 4.455802 C0.344217,3.013295 1.897276,1.570787 3.450335,0.12828 C2.630227,-0.488047 1.810119,-1.104374 0.990012,-1.720701 C-0.25004,-1.157421 -1.490091,-0.59414 -2.730143,-0.03086 C-2.223043,1.464694 -1.715942,2.960248 -1.208842,4.455802 z" fill="none" />
    <path d="M -1.208842 4.455802 C-1.715942,2.960248 -2.223043,1.464694 -2.730143,-0.03086 C-3.568653,0.910619 -4.407162,1.852098 -5.245672,2.793578 C-5.313216,4.052514 -5.380759,5.31145 -5.448303,6.570386 C-4.035149,5.865524 -2.621996,5.160663 -1.208842,4.455802 z" fill="none" />
    <path d="M -1.208842 4.455802 C-2.621996,5.160663 -4.035149,5.865524 -5.448303,6.570386 C-4.964422,7.84352 -4.480542,9.116655 -3.996661,10.389789 C-2.980354,10.529633 -1.964047,10.669477 -0.94774,10.809321 C-1.034774,8.691481 -1.121808,6.573641 -1.208842,4.455802 z" fill="none" />
    <path d="M 3.010954 10.570228 C3.524609,9.322779 4.038265,8.07533 4.55192,6.82788 C2.631666,6.037188 0.711412,5.246495 -1.208842,4.455802 C-1.121808,6.573641 -1.034774,8.691481 -0.94774,10.809321 C0.371824,10.729623 1.691389,10.649925 3.010954,10.570228 z" fill="none" />
    <path d="M 4.55192 6.82788 C4.038265,8.07533 3.524609,9.322779 3.010954,10.570228 C1.691389,10.649925 0.371824,10.729623 -0.94774,10.809321 C-1.034774,8.691481 -1.121808,6.573641 -1.208842,4.455802 C0.711412,5.246495 2.631666,6.037188 4.55192,6.82788 z" fill="none" />
    <path d="M -1.208842 4.455802 C-1.121808,6.573641 -1.034774,8.691481 -0.94774,10.809321 C-1.964047,10.669477 -2.980354,10.529633 -3.996661,10.389789 C-4.480542,9.116655 -4.964422,7.84352 -5.448303,6.570386 C-4.035149,5.865524 -2.621996,5.160663 -1.208842,4.455802 z" fill="none" />
    <path d="M -1.208842 4.455802 C-2.621996,5.160663 -4.035149,5.865524 -5.448303,6.570386 C-5.380759,5.31145 -5.313216,4.052514 -5.245672,2.793578 C-4.407162,1.852098 -3.568653,0.910619 -2.730143,-0.03086 C-2.223043,1.464694 -1.715942,2.960248 -1.208842,4.455802 z" fill="none" />
    <path d="M -1.208842 4.455802 C-1.715942,2.960248 -2.223043,1.464694 -2.730143,-0.03086 C-1.490091,-0.59414 -0.25004,-1.157421 0.990012,-1.720701 C1.810119,-1.104374 2.630227,-0.488047 3.450335,0.12828 C1.897276,1.570787 0.344217,3.013295 -1.208842,4.455802 z" fill="none" />
    <path d="M 6.092887 3.085533 C5.579231,4.332982 5.065576,5.580431 4.55192,6.82788 C2.631666,6.037188 0.711412,5.246495 -1.208842,4.455802 C0.344217,3.013295 1.897276,1.570787 3.450335,0.12828 C4.331186,1.114031 5.212036,2.099782 6.092887,3.085533 z" fill="none" />
    <path d="M 14.349512 10.862183 C14.417056,9.603247 14.4846,8.344311 14.552144,7.085375 C15.116465,6.358658 15.680786,5.63194 16.245108,4.905222 C15.907725,7.012133 15.570343,9.119045 15.232961,11.225956 C14.938478,11.104698 14.643995,10.983441 14.349512,10.862183 z" fill="none" />
    <path d="M 14.552144 7.085375 C14.068263,5.812241 13.584382,4.539106 13.100501,3.265972 C13.217187,2.305906 13.333873,1.345841 13.450558,0.385775 C14.382075,1.892257 15.313591,3.39874 16.245108,4.905222 C15.680786,5.63194 15.116465,6.358658 14.552144,7.085375 z" fill="none" />
    <path d="M 16.245108 4.905222 C15.313591,3.39874 14.382075,1.892257 13.450558,0.385775 C13.076562,-0.219065 12.702566,-0.823905 12.32857,-1.428745 C12.702566,-0.823905 13.076562,-0.219065 13.450558,0.385775 C14.382075,1.892257 15.313591,3.39874 16.245108,4.905222 z" fill="none" />
    <path d="M 13.100501 3.265972 C13.584382,4.539106 14.068263,5.812241 14.552144,7.085375 C15.116465,6.358658 15.680786,5.63194 16.245108,4.905222 C15.313591,3.39874 14.382075,1.892257 13.450558,0.385775 C13.333873,1.345841 13.217187,2.305906 13.100501,3.265972 z" fill="none" />
    <path d="M 14.552144 7.085375 C14.4846,8.344311 14.417056,9.603247 14.349512,10.862183 C14.643995,10.983441 14.938478,11.104698 15.232961,11.225956 C15.570343,9.119045 15.907725,7.012133 16.245108,4.905222 C15.680786,5.63194 15.116465,6.358658 14.552144,7.085375 z" fill="none" />
    <path d="M 14.349512 10.862183 C13.511003,11.803662 12.672493,12.745142 11.833983,13.686621 C11.722973,14.599996 11.611962,15.513371 11.500951,16.426746 C12.744954,14.69315 13.988957,12.959553 15.232961,11.225956 C14.938478,11.104698 14.643995,10.983441 14.349512,10.862183 z" fill="none" />
    <path d="M 11.833983 13.686621 C10.593932,14.249901 9.353881,14.813181 8.113829,15.376462 C7.52066,16.140328 6.927492,16.904195 6.334323,17.668061 C8.056532,17.25429 9.778741,16.840518 11.500951,16.426746 C11.611962,15.513371 11.722973,14.599996 11.833983,13.686621 z" fill="none" />
    <path d="M 11.500951 16.426746 C9.778741,16.840518 8.056532,17.25429 6.334323,17.668061 C5.64287,17.834187 4.951417,18.000313 4.259965,18.166439 C4.951417,18.000313 5.64287,17.834187 6.334323,17.668061 C8.056532,17.25429 9.778741,16.840518 11.500951,16.426746 z" fill="none" />
    <path d="M 8.113829 15.376462 C9.353881,14.813181 10.593932,14.249901 11.833983,13.686621 C11.722973,14.599996 11.611962,15.513371 11.500951,16.426746 C9.778741,16.840518 8.056532,17.25429 6.334323,17.668061 C6.927492,16.904195 7.52066,16.140328 8.113829,15.376462 z" fill="none" />
    <path d="M 11.833983 13.686621 C12.672493,12.745142 13.511003,11.803662 14.349512,10.862183 C14.643995,10.983441 14.938478,11.104698 15.232961,11.225956 C13.988957,12.959553 12.744954,14.69315 11.500951,16.426746 C11.611962,15.513371 11.722973,14.599996 11.833983,13.686621 z" fill="none" />
    <path d="M -5.245672 2.793578 C-4.407162,1.852098 -3.568653,0.910619 -2.730143,-0.03086 C-2.619132,-0.944235 -2.508121,-1.85761 -2.39711,-2.770985 C-3.641113,-1.037389 -4.885117,0.696208 -6.12912,2.429805 C-5.834637,2.551063 -5.540155,2.67232 -5.245672,2.793578 z" fill="none" />
    <path d="M -2.730143 -0.03086 C-1.490091,-0.59414 -0.25004,-1.157421 0.990012,-1.720701 C1.58318,-2.484567 2.176349,-3.248434 2.769518,-4.012301 C1.047309,-3.598529 -0.674901,-3.184757 -2.39711,-2.770985 C-2.508121,-1.85761 -2.619132,-0.944235 -2.730143,-0.03086 z" fill="none" />
    <path d="M -2.39711 -2.770985 C-0.674901,-3.184757 1.047309,-3.598529 2.769518,-4.012301 C3.460971,-4.178426 4.152423,-4.344552 4.843876,-4.510678 C4.152423,-4.344552 3.460971,-4.178426 2.769518,-4.012301 C1.047309,-3.598529 -0.674901,-3.184757 -2.39711,-2.770985 z" fill="none" />
    <path d="M 0.990012 -1.720701 C-0.25004,-1.157421 -1.490091,-0.59414 -2.730143,-0.03086 C-2.619132,-0.944235 -2.508121,-1.85761 -2.39711,-2.770985 C-0.674901,-3.184757 1.047309,-3.598529 2.769518,-4.012301 C2.176349,-3.248434 1.58318,-2.484567 0.990012,-1.720701 z" fill="none" />
    <path d="M -2.730143 -0.03086 C-3.568653,0.910619 -4.407162,1.852098 -5.245672,2.793578 C-5.540155,2.67232 -5.834637,2.551063 -6.12912,2.429805 C-4.885117,0.696208 -3.641113,-1.037389 -2.39711,-2.770985 C-2.508121,-1.85761 -2.619132,-0.944235 -2.730143,-0.03086 z" fill="none" />
    <path d="M -5.245672 2.793578 C-5.313216,4.052514 -5.380759,5.31145 -5.448303,6.570386 C-6.012624,7.297103 -6.576946,8.023821 -7.141267,8.750539 C-6.803885,6.643628 -6.466502,4.536716 -6.12912,2.429805 C-5.834637,2.551063 -5.540155,2.67232 -5.245672,2.793578 z" fill="none" />
    <path d="M -5.448303 6.570386 C-4.964422,7.84352 -4.480542,9.116655 -3.996661,10.389789 C-4.113346,11.349855 -4.230032,12.30992 -4.346718,13.269986 C-5.278234,11.763504 -6.209751,10.257021 -7.141267,8.750539 C-6.576946,8.023821 -6.012624,7.297103 -5.448303,6.570386 z" fill="none" />
    <path d="M -7.141267 8.750539 C-6.209751,10.257021 -5.278234,11.763504 -4.346718,13.269986 C-3.972722,13.874826 -3.598726,14.479666 -3.22473,15.084506 C-3.598726,14.479666 -3.972722,13.874826 -4.346718,13.269986 C-5.278234,11.763504 -6.209751,10.257021 -7.141267,8.750539 z" fill="none" />
    <path d="M -3.996661 10.389789 C-4.480542,9.116655 -4.964422,7.84352 -5.448303,6.570386 C-6.012624,7.297103 -6.576946,8.023821 -7.141267,8.750539 C-6.209751,10.257021 -5.278234,11.763504 -4.346718,13.269986 C-4.230032,12.30992 -4.113346,11.349855 -3.996661,10.389789 z" fill="none" />
    <path d="M -5.448303 6.570386 C-5.380759,5.31145 -5.313216,4.052514 -5.245672,2.793578 C-5.540155,2.67232 -5.834637,2.551063 -6.12912,2.429805 C-6.466502,4.536716 -6.803885,6.643628 -7.141267,8.750539 C-6.576946,8.023821 -6.012624,7.297103 -5.448303,6.570386 z" fill="none" />
    <path d="M 4.843876 -4.510678 C4.152423,-4.344552 3.460971,-4.178426 2.769518,-4.012301 C4.64302,-3.505943 6.516522,-2.999586 8.390024,-2.493229 C8.576681,-2.946539 8.763339,-3.399849 8.949996,-3.85316 C7.581289,-4.072333 6.212582,-4.291505 4.843876,-4.510678 z" fill="none" />
    <path d="M 0.990012 -1.720701 C1.810119,-1.104374 2.630227,-0.488047 3.450335,0.12828 C5.096898,-0.745556 6.743461,-1.619392 8.390024,-2.493229 C6.516522,-2.999586 4.64302,-3.505943 2.769518,-4.012301 C2.176349,-3.248434 1.58318,-2.484567 0.990012,-1.720701 z" fill="none" />
    <path d="M 6.092887 3.085533 C7.412452,3.005836 8.732016,2.926138 10.051581,2.84644 C9.497729,1.066551 8.943876,-0.713339 8.390024,-2.493229 C6.743461,-1.619392 5.096898,-0.745556 3.450335,0.12828 C4.331186,1.114031 5.212036,2.099782 6.092887,3.085533 z" fill="none" />
    <path d="M 10.051581 2.84644 C11.067888,2.986284 12.084195,3.126128 13.100501,3.265972 C13.217187,2.305906 13.333873,1.345841 13.450558,0.385775 C11.763714,-0.573893 10.076869,-1.533561 8.390024,-2.493229 C8.943876,-0.713339 9.497729,1.066551 10.051581,2.84644 z" fill="none" />
    <path d="M 13.450558 0.385775 C13.076562,-0.219065 12.702566,-0.823905 12.32857,-1.428745 C11.202379,-2.236883 10.076187,-3.045022 8.949996,-3.85316 C8.763339,-3.399849 8.576681,-2.946539 8.390024,-2.493229 C10.076869,-1.533561 11.763714,-0.573893 13.450558,0.385775 z" fill="none" />
    <path d="M 12.32857 -1.428745 C12.702566,-0.823905 13.076562,-0.219065 13.450558,0.385775 C11.763714,-0.573893 10.076869,-1.533561 8.390024,-2.493229 C8.576681,-2.946539 8.763339,-3.399849 8.949996,-3.85316 C10.076187,-3.045022 11.202379,-2.236883 12.32857,-1.428745 z" fill="none" />
    <path d="M 13.100501 3.265972 C12.084195,3.126128 11.067888,2.986284 10.051581,2.84644 C9.497729,1.066551 8.943876,-0.713339 8.390024,-2.493229 C10.076869,-1.533561 11.763714,-0.573893 13.450558,0.385775 C13.333873,1.345841 13.217187,2.305906 13.100501,3.265972 z" fill="none" />
    <path d="M 10.051581 2.84644 C8.732016,2.926138 7.412452,3.005836 6.092887,3.085533 C5.212036,2.099782 4.331186,1.114031 3.450335,0.12828 C5.096898,-0.745556 6.743461,-1.619392 8.390024,-2.493229 C8.943876,-0.713339 9.497729,1.066551 10.051581,2.84644 z" fill="none" />
    <path d="M 3.450335 0.12828 C2.630227,-0.488047 1.810119,-1.104374 0.990012,-1.720701 C1.58318,-2.484567 2.176349,-3.248434 2.769518,-4.012301 C4.64302,-3.505943 6.516522,-2.999586 8.390024,-2.493229 C6.743461,-1.619392 5.096898,-0.745556 3.450335,0.12828 z" fill="none" />
    <path d="M 2.769518 -4.012301 C3.460971,-4.178426 4.152423,-4.344552 4.843876,-4.510678 C6.212582,-4.291505 7.581289,-4.072333 8.949996,-3.85316 C8.763339,-3.399849 8.576681,-2.946539 8.390024,-2.493229 C6.516522,-2.999586 4.64302,-3.505943 2.769518,-4.012301 z" fill="none" />
    <path d="M 4.259965 18.166439 C4.951417,18.000313 5.64287,17.834187 6.334323,17.668061 C4.460821,17.161704 2.587319,16.655347 0.713817,16.148989 C0.527159,16.6023 0.340502,17.05561 0.153845,17.508921 C1.522552,17.728094 2.891258,17.947266 4.259965,18.166439 z" fill="none" />
    <path d="M 8.113829 15.376462 C7.293721,14.760135 6.473613,14.143808 5.653506,13.527481 C4.006943,14.401317 2.36038,15.275153 0.713817,16.148989 C2.587319,16.655347 4.460821,17.161704 6.334323,17.668061 C6.927492,16.904195 7.52066,16.140328 8.113829,15.376462 z" fill="none" />
    <path d="M 5.653506 13.527481 C4.772655,12.54173 3.891804,11.555979 3.010954,10.570228 C1.691389,10.649925 0.371824,10.729623 -0.94774,10.809321 C-0.393888,12.58921 0.159964,14.3691 0.713817,16.148989 C2.36038,15.275153 4.006943,14.401317 5.653506,13.527481 z" fill="none" />
    <path d="M -0.94774 10.809321 C-1.964047,10.669477 -2.980354,10.529633 -3.996661,10.389789 C-4.113346,11.349855 -4.230032,12.30992 -4.346718,13.269986 C-2.659873,14.229654 -0.973028,15.189322 0.713817,16.148989 C0.159964,14.3691 -0.393888,12.58921 -0.94774,10.809321 z" fill="none" />
    <path d="M -4.346718 13.269986 C-3.972722,13.874826 -3.598726,14.479666 -3.22473,15.084506 C-2.098538,15.892644 -0.972347,16.700783 0.153845,17.508921 C0.340502,17.05561 0.527159,16.6023 0.713817,16.148989 C-0.973028,15.189322 -2.659873,14.229654 -4.346718,13.269986 z" fill="none" />
    <path d="M -3.22473 15.084506 C-3.598726,14.479666 -3.972722,13.874826 -4.346718,13.269986 C-2.659873,14.229654 -0.973028,15.189322 0.713817,16.148989 C0.527159,16.6023 0.340502,17.05561 0.153845,17.508921 C-0.972347,16.700783 -2.098538,15.892644 -3.22473,15.084506 z" fill="none" />
    <path d="M -3.996661 10.389789 C-2.980354,10.529633 -1.964047,10.669477 -0.94774,10.809321 C-0.393888,12.58921 0.159964,14.3691 0.713817,16.148989 C-0.973028,15.189322 -2.659873,14.229654 -4.346718,13.269986 C-4.230032,12.30992 -4.113346,11.349855 -3.996661,10.389789 z" fill="none" />
    <path d="M 3.010954 10.570228 C3.891804,11.555979 4.772655,12.54173 5.653506,13.527481 C4.006943,14.401317 2.36038,15.275153 0.713817,16.148989 C0.159964,14.3691 -0.393888,12.58921 -0.94774,10.809321 C0.371824,10.729623 1.691389,10.649925 3.010954,10.570228 z" fill="none" />
    <path d="M 5.653506 13.527481 C6.473613,14.143808 7.293721,14.760135 8.113829,15.376462 C7.52066,16.140328 6.927492,16.904195 6.334323,17.668061 C4.460821,17.161704 2.587319,16.655347 0.713817,16.148989 C2.36038,15.275153 4.006943,14.401317 5.653506,13.527481 z" fill="none" />
    <path d="M 6.334323 17.668061 C5.64287,17.834187 4.951417,18.000313 4.259965,18.166439 C2.891258,17.947266 1.522552,17.728094 0.153845,17.508921 C0.340502,17.05561 0.527159,16.6023 0.713817,16.148989 C2.587319,16.655347 4.460821,17.161704 6.334323,17.668061 z" fill="none" />
  </g>
</svg>